<?xml version="1.0" standalone="no"?>
<!DOCTYPE svg PUBLIC "-//W3C//DTD SVG 1.1//EN" "http://www.w3.org/Graphics/SVG/1.1/DTD/svg11.dtd" >
<svg>
<metadata>
Created by FontForge 20120731 at Fri Jul 29 16:55:43 2016
 By www-data
Copyright (c) 2014 by Julieta Ulanovsky. All rights reserved.
</metadata>
<defs>
<font id="Montserrat-Regular" horiz-adv-x="498" >
  <font-face 
    font-family="Montserrat"
    font-weight="400"
    font-stretch="normal"
    units-per-em="1000"
    panose-1="0 0 5 0 0 0 0 0 0 0"
    ascent="800"
    descent="-200"
    x-height="532"
    cap-height="700"
    bbox="-277 -251 1381 969"
    underline-thickness="50"
    underline-position="-50"
    stemh="93"
    stemv="115"
    unicode-range="U+0020-FB02"
  />
<missing-glyph horiz-adv-x="500" 
d="M0 0v700h500v-700h-500zM250 395l170 255h-340zM280 350l170 -255v510zM80 50h340l-170 255zM50 605v-510l170 255z" />
    <glyph glyph-name="fi" unicode="fi" horiz-adv-x="627" 
d="M485 615c-38 0 -67 29 -67 69c0 41 29 70 67 70s67 -29 67 -70c0 -40 -29 -69 -67 -69zM107 513v51c0 127 94 183 183 183c36 0 71 -8 99 -24l-4 -100c-31 14 -64 23 -92 23c-41 0 -72 -19 -72 -71v-62h139v-86h-139v-427h-114v427h-70v86h70zM428 532h114v-532h-114v532
z" />
    <glyph glyph-name="fl" unicode="fl" horiz-adv-x="651" 
d="M107 513v65c0 103 76 175 184 174c35 -1 73 -9 99 -23l-3 -100c-22 17 -49 26 -74 26c-53 1 -92 -38 -92 -94v-48h140l-1 -85h-139v-428h-114v428h-70l1 85h69zM561 742v-742h-115v742h115z" />
    <glyph glyph-name=".notdef" horiz-adv-x="500" 
d="M0 0v700h500v-700h-500zM250 395l170 255h-340zM280 350l170 -255v510zM80 50h340l-170 255zM50 605v-510l170 255z" />
    <glyph glyph-name="A" unicode="A" horiz-adv-x="738" 
d="M544 158h-353l-67 -158h-123l309 700h121l306 -700h-126zM499 263l-132 311l-132 -311h264z" />
    <glyph glyph-name="Aacute" unicode="&#xc1;" horiz-adv-x="738" 
d="M404 776h-102l106 148l118 -50zM544 158h-353l-67 -158h-123l309 700h121l306 -700h-126zM499 263l-132 311l-132 -311h264z" />
    <glyph glyph-name="Abreve" unicode="&#x102;" horiz-adv-x="738" 
d="M369 774c-80 0 -138 57 -141 142h78c2 -38 28 -65 63 -65s61 27 63 65h78c-3 -85 -61 -142 -141 -142zM544 158h-353l-67 -158h-123l309 700h121l306 -700h-126zM499 263l-132 311l-132 -311h264z" />
    <glyph glyph-name="Acircumflex" unicode="&#xc2;" horiz-adv-x="738" 
d="M307 779h-94l103 141h106l103 -141h-94l-62 88zM544 158h-353l-67 -158h-123l309 700h121l306 -700h-126zM499 263l-132 311l-132 -311h264z" />
    <glyph glyph-name="Adieresis" unicode="&#xc4;" horiz-adv-x="738" 
d="M281 794c-35 0 -61 27 -61 63c0 37 26 64 61 64s60 -27 60 -64c0 -36 -25 -63 -60 -63zM458 794c-35 0 -61 27 -61 63c0 37 26 64 61 64s60 -27 60 -64c0 -36 -25 -63 -60 -63zM544 158h-353l-67 -158h-123l309 700h121l306 -700h-126zM499 263l-132 311l-132 -311h264z
" />
    <glyph glyph-name="Agrave" unicode="&#xc0;" horiz-adv-x="738" 
d="M329 777l-122 98l118 50l106 -148h-102zM544 158h-353l-67 -158h-123l309 700h121l306 -700h-126zM499 263l-132 311l-132 -311h264z" />
    <glyph glyph-name="Amacron" unicode="&#x100;" horiz-adv-x="738" 
d="M497 809h-255v83h255v-83zM544 158h-353l-67 -158h-123l309 700h121l306 -700h-126zM499 263l-132 311l-132 -311h264z" />
    <glyph glyph-name="Aogonek" unicode="&#x104;" horiz-adv-x="738" 
d="M738 0h-33c-34 -48 -49 -82 -49 -105c0 -20 12 -32 30 -32s34 13 49 32l33 -39c-22 -36 -58 -57 -95 -57c-38 0 -79 23 -79 78c0 37 19 76 52 123h-34l-68 158h-352l-68 -158h-123l309 700h122zM234 262h268l-134 312z" />
    <glyph glyph-name="Aring" unicode="&#xc5;" horiz-adv-x="738" 
d="M544 158h-353l-67 -158h-123l299 676c-31 22 -51 58 -51 98c0 67 55 122 122 122c68 0 123 -55 123 -122c0 -40 -21 -77 -52 -99l295 -675h-126zM371 840c-38 0 -69 -30 -69 -66s31 -65 69 -65s70 29 70 65s-32 66 -70 66zM499 263l-132 311l-132 -311h264z" />
    <glyph glyph-name="Atilde" unicode="&#xc3;" horiz-adv-x="738" 
d="M319 844c-24 0 -37 -17 -37 -49h-74c0 87 32 131 92 131c55 0 85 -55 119 -55c25 0 38 17 38 49h73c0 -87 -31 -131 -91 -131s-85 55 -120 55zM544 158h-353l-67 -158h-123l309 700h121l306 -700h-126zM499 263l-132 311l-132 -311h264z" />
    <glyph glyph-name="AE" unicode="&#xc6;" horiz-adv-x="1052" 
d="M999 106v-106h-511v173h-266l-98 -173h-123l406 700h580v-106h-382v-190h343v-105h-343v-193h394zM488 265v337h-24l-190 -337h214z" />
    <glyph glyph-name="B" unicode="B" horiz-adv-x="706" 
d="M92 700h304c145 0 235 -66 235 -175c0 -79 -47 -138 -123 -156c94 -16 150 -83 150 -177c0 -120 -97 -192 -255 -192h-311v700zM210 595v-185h180c75 0 120 35 120 94s-45 91 -120 91h-180zM210 306v-201h180c92 0 147 36 147 102c0 62 -55 99 -147 99h-180z" />
    <glyph glyph-name="C" unicode="C" horiz-adv-x="697" 
d="M402 703c99 0 198 -41 266 -108l-69 -86c-51 55 -124 89 -195 89c-140 0 -250 -108 -250 -246s110 -247 250 -247c70 0 142 32 195 83l70 -78c-71 -70 -172 -115 -271 -115c-205 0 -364 155 -364 356c0 199 161 352 368 352z" />
    <glyph glyph-name="Cacute" unicode="&#x106;" horiz-adv-x="697" 
d="M529 874l-122 -98h-102l106 148zM402 703c99 0 198 -41 266 -108l-69 -86c-51 55 -124 89 -195 89c-140 0 -250 -108 -250 -246s110 -247 250 -247c70 0 142 32 195 83l70 -78c-71 -70 -172 -115 -271 -115c-205 0 -364 155 -364 356c0 199 161 352 368 352z" />
    <glyph glyph-name="Ccaron" unicode="&#x10c;" horiz-adv-x="697" 
d="M204 920h102l63 -93l63 93h102l-108 -150h-114zM402 703c99 0 198 -41 266 -108l-69 -86c-51 55 -124 89 -195 89c-140 0 -250 -108 -250 -246s110 -247 250 -247c70 0 142 32 195 83l70 -78c-71 -70 -172 -115 -271 -115c-205 0 -364 155 -364 356
c0 199 161 352 368 352z" />
    <glyph glyph-name="Ccedilla" unicode="&#xc7;" horiz-adv-x="697" 
d="M432 -3l-22 -47c42 -8 70 -35 70 -79c0 -58 -47 -95 -106 -95c-33 0 -65 11 -88 28l22 54c17 -13 38 -20 58 -20c29 0 46 21 46 41c0 19 -15 38 -48 38c-11 0 -24 -2 -35 -5l36 84c-189 16 -331 165 -331 355c0 199 161 352 368 352c99 0 198 -41 266 -108l-69 -86
c-51 55 -124 89 -195 89c-140 0 -250 -108 -250 -246s110 -247 250 -247c70 0 142 32 195 83l70 -78c-63 -62 -149 -104 -237 -113z" />
    <glyph glyph-name="D" unicode="D" horiz-adv-x="775" 
d="M92 700h287c210 0 362 -147 362 -350c0 -202 -153 -350 -365 -350h-284v700zM210 594v-488h172c136 0 240 101 240 243c0 143 -107 245 -245 245h-167z" />
    <glyph glyph-name="Eth" unicode="&#xd0;" horiz-adv-x="795" 
d="M112 700h287c209 0 362 -147 362 -350c0 -202 -153 -350 -366 -350h-283v317h-112v69h112v314zM229 106h173c136 0 239 101 239 243c0 143 -106 245 -244 245h-168v-208h199v-69h-199v-211z" />
    <glyph glyph-name="Dcaron" unicode="&#x10e;" horiz-adv-x="775" 
d="M197 920h102l63 -93l63 93h102l-108 -150h-114zM92 700h287c210 0 362 -147 362 -350c0 -202 -153 -350 -365 -350h-284v700zM210 594v-488h172c136 0 240 101 240 243c0 143 -107 245 -245 245h-167z" />
    <glyph glyph-name="Dcroat" unicode="&#x110;" horiz-adv-x="775" 
d="M493 809h-255v83h255v-83zM92 700h287c210 0 362 -147 362 -350c0 -202 -153 -350 -365 -350h-284v700zM210 594v-488h172c136 0 240 101 240 243c0 143 -107 245 -245 245h-167z" />
    <glyph glyph-name="E" unicode="E" horiz-adv-x="656" 
d="M592 594h-382v-189h342v-106h-342v-193h394v-106h-512v700h500v-106z" />
    <glyph glyph-name="Eacute" unicode="&#xc9;" horiz-adv-x="656" 
d="M501 874l-122 -98h-102l106 148zM592 594h-382v-189h342v-106h-342v-193h394v-106h-512v700h500v-106z" />
    <glyph glyph-name="Ecaron" unicode="&#x11a;" horiz-adv-x="656" 
d="M176 920h102l63 -93l63 93h102l-108 -150h-114zM592 594h-382v-189h342v-106h-342v-193h394v-106h-512v700h500v-106z" />
    <glyph glyph-name="Ecircumflex" unicode="&#xca;" horiz-adv-x="656" 
d="M500 779h-94l-62 88l-62 -88h-94l103 141h106zM592 594h-382v-189h342v-106h-342v-193h394v-106h-512v700h500v-106z" />
    <glyph glyph-name="Edieresis" unicode="&#xcb;" horiz-adv-x="656" 
d="M256 921c35 0 60 -27 60 -64c0 -36 -25 -63 -60 -63s-61 27 -61 63c0 37 26 64 61 64zM433 921c35 0 60 -27 60 -64c0 -36 -25 -63 -60 -63s-61 27 -61 63c0 37 26 64 61 64zM592 594h-382v-189h342v-106h-342v-193h394v-106h-512v700h500v-106z" />
    <glyph glyph-name="Edotaccent" unicode="&#x116;" horiz-adv-x="656" 
d="M344 922c38 0 67 -29 67 -70c0 -40 -29 -69 -67 -69s-67 29 -67 69c0 41 29 70 67 70zM592 594h-382v-189h342v-106h-342v-193h394v-106h-512v700h500v-106z" />
    <glyph glyph-name="Egrave" unicode="&#xc8;" horiz-adv-x="656" 
d="M406 777h-102l-122 98l118 50zM592 594h-382v-189h342v-106h-342v-193h394v-106h-512v700h500v-106z" />
    <glyph glyph-name="Emacron" unicode="&#x112;" horiz-adv-x="656" 
d="M472 809h-255v83h255v-83zM592 594h-382v-189h342v-106h-342v-193h394v-106h-512v700h500v-106z" />
    <glyph glyph-name="Eogonek" unicode="&#x118;" horiz-adv-x="665" 
d="M601 602h-391v-198h351v-97h-351v-209h403v-98h-66c-36 -50 -50 -82 -50 -105c0 -20 13 -32 30 -32c18 0 35 13 50 32l33 -39c-24 -36 -59 -57 -96 -57c-38 0 -78 23 -78 78c0 36 17 74 52 123h-396v700h509v-98z" />
    <glyph glyph-name="F" unicode="F" horiz-adv-x="575" 
d="M561 594h-351v-202h318v-105h-318v-287h-118v700h470z" />
    <glyph glyph-name="G" unicode="G" horiz-adv-x="749" 
d="M571 344h103v-258c-71 -54 -176 -91 -272 -91c-207 0 -368 155 -368 355s163 353 375 353c100 0 200 -38 269 -98l-67 -87c-54 50 -129 80 -202 80c-143 0 -255 -109 -255 -248c0 -140 113 -249 256 -249c52 0 111 18 161 48v195z" />
    <glyph glyph-name="Gbreve" unicode="&#x11e;" horiz-adv-x="749" 
d="M387 774c-80 0 -138 57 -141 142h78c2 -38 28 -65 63 -65s61 27 63 65h78c-3 -85 -61 -142 -141 -142zM571 344h103v-258c-71 -54 -176 -91 -272 -91c-207 0 -368 155 -368 355s163 353 375 353c100 0 200 -38 269 -98l-67 -87c-54 50 -129 80 -202 80
c-143 0 -255 -109 -255 -248c0 -140 113 -249 256 -249c52 0 111 18 161 48v195z" />
    <glyph glyph-name="Gcommaaccent" unicode="&#x122;" horiz-adv-x="749" 
d="M571 344h103v-258c-71 -54 -176 -91 -272 -91c-207 0 -368 155 -368 355s163 353 375 353c100 0 200 -38 269 -98l-67 -87c-54 50 -129 80 -202 80c-143 0 -255 -109 -255 -248c0 -140 113 -249 256 -249c52 0 111 18 161 48v195zM393 -49c32 0 61 -24 61 -64
c0 -19 -7 -36 -18 -52l-57 -86h-59l38 86c-18 12 -27 31 -27 52c0 37 26 64 62 64z" />
    <glyph glyph-name="H" unicode="H" horiz-adv-x="791" 
d="M699 0h-118v290h-371v-290h-118v700h118v-304h371v304h118v-700z" />
    <glyph glyph-name="I" unicode="I" horiz-adv-x="302" 
d="M210 0h-118v700h118v-700z" />
    <glyph glyph-name="IJ" unicode="&#x132;" horiz-adv-x="801" 
d="M210 0h-118v700h118v-700zM724 700v-484c0 -141 -83 -221 -218 -221c-84 0 -154 37 -206 101l56 90c46 -50 101 -77 149 -77c63 0 100 39 100 111v374h-242v106h361z" />
    <glyph glyph-name="Iacute" unicode="&#xcd;" horiz-adv-x="302" 
d="M308 874l-122 -98h-102l106 148zM210 0h-118v700h118v-700z" />
    <glyph glyph-name="Icircumflex" unicode="&#xce;" horiz-adv-x="302" 
d="M307 779h-94l-62 88l-62 -88h-94l103 141h106zM210 0h-118v700h118v-700z" />
    <glyph glyph-name="Idieresis" unicode="&#xcf;" horiz-adv-x="302" 
d="M63 921c35 0 60 -27 60 -64c0 -36 -25 -63 -60 -63s-61 27 -61 63c0 37 26 64 61 64zM240 921c35 0 60 -27 60 -64c0 -36 -25 -63 -60 -63s-61 27 -61 63c0 37 26 64 61 64zM210 0h-118v700h118v-700z" />
    <glyph glyph-name="Idotaccent" unicode="&#x130;" horiz-adv-x="302" 
d="M151 922c38 0 67 -29 67 -70c0 -40 -29 -69 -67 -69s-67 29 -67 69c0 41 29 70 67 70zM210 0h-118v700h118v-700z" />
    <glyph glyph-name="Igrave" unicode="&#xcc;" horiz-adv-x="302" 
d="M212 777h-102l-122 98l118 50zM210 0h-118v700h118v-700z" />
    <glyph glyph-name="Imacron" unicode="&#x12a;" horiz-adv-x="302" 
d="M279 809h-255v83h255v-83zM210 0h-118v700h118v-700z" />
    <glyph glyph-name="Iogonek" unicode="&#x12e;" horiz-adv-x="302" 
d="M216 -105l33 -39c-23 -36 -58 -57 -95 -57c-39 0 -79 23 -79 78c0 37 19 76 52 123h-35v700h118v-700h-24c-34 -48 -49 -82 -49 -105c0 -20 12 -32 29 -32c19 0 35 13 50 32z" />
    <glyph glyph-name="Itilde" unicode="&#x128;" horiz-adv-x="302" 
d="M82 926c55 0 85 -55 119 -55c25 0 38 17 38 49h73c0 -87 -31 -131 -91 -131s-85 55 -120 55c-24 0 -37 -17 -37 -49h-74c0 87 32 131 92 131zM210 0h-118v700h118v-700z" />
    <glyph glyph-name="J" unicode="J" horiz-adv-x="499" 
d="M422 700v-484c0 -141 -83 -221 -218 -221c-84 0 -154 37 -206 101l56 90c46 -50 101 -77 149 -77c63 0 100 39 100 111v374h-242v106h361z" />
    <glyph glyph-name="Jcircumflex" unicode="&#x134;" horiz-adv-x="499" 
d="M394 779h-94l-62 88l-62 -88h-94l103 141h106zM422 700v-484c0 -141 -83 -221 -218 -221c-84 0 -154 37 -206 101l56 90c46 -50 101 -77 149 -77c63 0 100 39 100 111v374h-242v106h361z" />
    <glyph glyph-name="K" unicode="K" horiz-adv-x="718" 
d="M559 0l-230 309l-119 -131v-178h-118v700h118v-362l334 362h139l-271 -299l289 -401h-142z" />
    <glyph glyph-name="Kcommaaccent" unicode="&#x136;" horiz-adv-x="718" 
d="M701 0h-142l-230 309l-119 -131v-178h-118v700h118v-362l334 362h139l-271 -299zM359 -49c32 0 61 -24 61 -64c0 -19 -7 -36 -18 -52l-57 -86h-59l38 86c-18 12 -27 31 -27 52c0 37 26 64 62 64z" />
    <glyph glyph-name="L" unicode="L" horiz-adv-x="534" 
d="M210 107h303v-107h-421v700h118v-593z" />
    <glyph glyph-name="Lacute" unicode="&#x139;" horiz-adv-x="534" 
d="M310 874l-122 -98h-102l106 148zM210 107h303v-107h-421v700h118v-593z" />
    <glyph glyph-name="Lcaron" unicode="&#x13d;" horiz-adv-x="534" 
d="M513 107v-107h-421v700h118v-593h303zM365 466l38 87c-18 12 -27 31 -27 52c0 37 26 64 62 64c32 0 61 -24 61 -64c0 -20 -7 -37 -18 -53l-57 -86h-59z" />
    <glyph glyph-name="Lcommaaccent" unicode="&#x13b;" horiz-adv-x="534" 
d="M513 107v-107h-421v700h118v-593h303zM296 -49c32 0 61 -24 61 -64c0 -19 -7 -36 -18 -52l-57 -86h-59l38 86c-18 12 -27 31 -27 52c0 37 26 64 62 64z" />
    <glyph glyph-name="Ldot" unicode="&#x13f;" horiz-adv-x="534" 
d="M210 107h303v-107h-421v700h118v-593zM396 528c34 0 60 -26 60 -63s-26 -64 -60 -64s-60 27 -60 64s26 63 60 63z" />
    <glyph glyph-name="Lslash" unicode="&#x141;" horiz-adv-x="551" 
d="M530 107v-107h-421v368l-83 -24l-20 76l103 30v250h117v-215l160 47l20 -77l-180 -53v-295h304z" />
    <glyph glyph-name="M" unicode="M" horiz-adv-x="925" 
d="M832 0h-109l-1 523l-221 -450h-77l-221 450v-523h-111v700h140l231 -465l230 465h139v-700z" />
    <glyph glyph-name="N" unicode="N" horiz-adv-x="792" 
d="M699 0h-116l-373 502v-502h-118v700h116l375 -503v503h116v-700z" />
    <glyph glyph-name="Nacute" unicode="&#x143;" horiz-adv-x="792" 
d="M553 874l-122 -98h-102l106 148zM699 0h-116l-373 502v-502h-118v700h116l375 -503v503h116v-700z" />
    <glyph glyph-name="Ncaron" unicode="&#x147;" horiz-adv-x="792" 
d="M228 920h102l63 -93l63 93h102l-108 -150h-114zM699 0h-116l-373 502v-502h-118v700h116l375 -503v503h116v-700z" />
    <glyph glyph-name="Ncommaaccent" unicode="&#x145;" horiz-adv-x="792" 
d="M699 700v-700h-116l-373 502v-502h-118v700h116l375 -503v503h116zM402 -49c32 0 61 -24 61 -64c0 -19 -7 -36 -18 -52l-57 -86h-59l38 86c-18 12 -27 31 -27 52c0 37 26 64 62 64z" />
    <glyph glyph-name="Ntilde" unicode="&#xd1;" horiz-adv-x="792" 
d="M327 926c55 0 85 -55 119 -55c25 0 38 17 38 49h73c0 -87 -31 -131 -91 -131s-85 55 -120 55c-24 0 -37 -17 -37 -49h-74c0 87 32 131 92 131zM699 0h-116l-373 502v-502h-118v700h116l375 -503v503h116v-700z" />
    <glyph glyph-name="O" unicode="O" horiz-adv-x="810" 
d="M405 703c209 0 371 -153 371 -353s-162 -355 -371 -355s-371 155 -371 355c0 201 162 353 371 353zM406 597c-138 0 -252 -108 -252 -247s115 -249 252 -249s249 110 249 249s-112 247 -249 247z" />
    <glyph glyph-name="Oacute" unicode="&#xd3;" horiz-adv-x="810" 
d="M557 874l-122 -98h-102l106 148zM405 703c209 0 371 -153 371 -353s-162 -355 -371 -355s-371 155 -371 355c0 201 162 353 371 353zM406 597c-138 0 -252 -108 -252 -247s115 -249 252 -249s249 110 249 249s-112 247 -249 247z" />
    <glyph glyph-name="Ocircumflex" unicode="&#xd4;" horiz-adv-x="810" 
d="M556 779h-94l-62 88l-62 -88h-94l103 141h106zM405 703c209 0 371 -153 371 -353s-162 -355 -371 -355s-371 155 -371 355c0 201 162 353 371 353zM406 597c-138 0 -252 -108 -252 -247s115 -249 252 -249s249 110 249 249s-112 247 -249 247z" />
    <glyph glyph-name="Odieresis" unicode="&#xd6;" horiz-adv-x="810" 
d="M312 921c35 0 60 -27 60 -64c0 -36 -25 -63 -60 -63s-61 27 -61 63c0 37 26 64 61 64zM489 921c35 0 60 -27 60 -64c0 -36 -25 -63 -60 -63s-61 27 -61 63c0 37 26 64 61 64zM405 703c209 0 371 -153 371 -353s-162 -355 -371 -355s-371 155 -371 355
c0 201 162 353 371 353zM406 597c-138 0 -252 -108 -252 -247s115 -249 252 -249s249 110 249 249s-112 247 -249 247z" />
    <glyph glyph-name="Ograve" unicode="&#xd2;" horiz-adv-x="810" 
d="M462 777h-102l-122 98l118 50zM405 703c209 0 371 -153 371 -353s-162 -355 -371 -355s-371 155 -371 355c0 201 162 353 371 353zM406 597c-138 0 -252 -108 -252 -247s115 -249 252 -249s249 110 249 249s-112 247 -249 247z" />
    <glyph glyph-name="Ohungarumlaut" unicode="&#x150;" horiz-adv-x="810" 
d="M435 884l-92 -110h-89l83 154zM600 884l-92 -110h-89l83 154zM405 703c209 0 371 -153 371 -353s-162 -355 -371 -355s-371 155 -371 355c0 201 162 353 371 353zM406 597c-138 0 -252 -108 -252 -247s115 -249 252 -249s249 110 249 249s-112 247 -249 247z" />
    <glyph glyph-name="Omacron" unicode="&#x14c;" horiz-adv-x="810" 
d="M528 809h-255v83h255v-83zM405 703c209 0 371 -153 371 -353s-162 -355 -371 -355s-371 155 -371 355c0 201 162 353 371 353zM406 597c-138 0 -252 -108 -252 -247s115 -249 252 -249s249 110 249 249s-112 247 -249 247z" />
    <glyph glyph-name="Oslash" unicode="&#xd8;" horiz-adv-x="810" 
d="M582 811l-44 -130c141 -49 238 -176 238 -331c0 -200 -162 -355 -371 -355c-33 0 -66 4 -96 11l-44 -128h-69l51 149c-127 56 -213 178 -213 323c0 201 162 353 371 353c23 0 46 -2 69 -6l38 114h70zM154 350c0 -94 52 -174 128 -217l157 462c-11 1 -22 2 -33 2
c-138 0 -252 -108 -252 -247zM406 101c137 0 249 110 249 249c0 104 -63 191 -153 228l-159 -469c20 -5 41 -8 63 -8z" />
    <glyph glyph-name="Otilde" unicode="&#xd5;" horiz-adv-x="810" 
d="M331 926c55 0 85 -55 119 -55c25 0 38 17 38 49h73c0 -87 -31 -131 -91 -131s-85 55 -120 55c-24 0 -37 -17 -37 -49h-74c0 87 32 131 92 131zM405 703c209 0 371 -153 371 -353s-162 -355 -371 -355s-371 155 -371 355c0 201 162 353 371 353zM406 597
c-138 0 -252 -108 -252 -247s115 -249 252 -249s249 110 249 249s-112 247 -249 247z" />
    <glyph glyph-name="OE" unicode="&#x152;" horiz-adv-x="1097" 
d="M1045 106v-106h-641c-208 0 -370 152 -370 350c0 196 161 350 370 350h629v-106h-382v-190h342v-105h-342v-193h394zM533 106v487h-128c-141 0 -251 -105 -251 -244s110 -243 251 -243h128z" />
    <glyph glyph-name="P" unicode="P" horiz-adv-x="673" 
d="M92 700h279c176 0 277 -87 277 -239c0 -158 -101 -250 -277 -250h-161v-211h-118v700zM210 594v-277h156c108 0 169 46 169 141c0 92 -61 136 -169 136h-156z" />
    <glyph glyph-name="Thorn" unicode="&#xde;" horiz-adv-x="679" 
d="M210 601h147c190 0 296 -85 296 -234c0 -156 -106 -245 -296 -245h-147v-122h-118v700h118v-99zM210 220h142c119 0 181 49 181 144c0 91 -62 139 -181 139h-142v-283z" />
    <glyph glyph-name="Q" unicode="Q" horiz-adv-x="825" 
d="M770 6l47 -83c-54 -48 -125 -77 -190 -77c-88 0 -167 55 -223 149c-209 1 -370 155 -370 355c0 201 162 353 371 353s371 -153 371 -353c0 -160 -103 -291 -252 -337c38 -41 77 -65 117 -65c37 0 83 22 129 58zM154 350c0 -139 115 -249 252 -249s249 110 249 249
s-112 247 -249 247c-138 0 -252 -108 -252 -247z" />
    <glyph glyph-name="R" unicode="R" horiz-adv-x="723" 
d="M536 0l-128 212c-10 -1 -21 -1 -32 -1h-166v-211h-118v700h284c179 0 282 -87 282 -239c0 -112 -52 -191 -145 -227l157 -234h-134zM210 317h166c108 0 170 46 170 141c0 92 -62 136 -170 136h-166v-277z" />
    <glyph glyph-name="Racute" unicode="&#x154;" horiz-adv-x="723" 
d="M390 776h-102l106 148l118 -50zM536 0l-128 212c-10 -1 -21 -1 -32 -1h-166v-211h-118v700h284c179 0 282 -87 282 -239c0 -112 -52 -191 -145 -227l157 -234h-134zM210 317h166c108 0 170 46 170 141c0 92 -62 136 -170 136h-166v-277z" />
    <glyph glyph-name="Rcaron" unicode="&#x158;" horiz-adv-x="723" 
d="M295 770l-108 150h102l63 -93l63 93h102l-108 -150h-114zM536 0l-128 212c-10 -1 -21 -1 -32 -1h-166v-211h-118v700h284c179 0 282 -87 282 -239c0 -112 -52 -191 -145 -227l157 -234h-134zM210 317h166c108 0 170 46 170 141c0 92 -62 136 -170 136h-166v-277z" />
    <glyph glyph-name="Rcommaaccent" unicode="&#x156;" horiz-adv-x="723" 
d="M670 0h-134l-128 212c-10 -1 -21 -1 -32 -1h-166v-211h-118v700h284c179 0 282 -87 282 -239c0 -112 -52 -191 -145 -227zM210 317h166c108 0 170 46 170 141c0 92 -62 136 -170 136h-166v-277zM366 -49c32 0 61 -24 61 -64c0 -19 -7 -36 -18 -52l-57 -86h-59l38 86
c-18 12 -27 31 -27 52c0 37 26 64 62 64z" />
    <glyph glyph-name="S" unicode="S" horiz-adv-x="622" 
d="M322 705c91 0 180 -29 245 -72l-49 -104c-76 46 -152 65 -205 65c-69 0 -114 -26 -114 -73c0 -153 378 -71 377 -323c0 -125 -110 -202 -264 -202c-110 0 -214 45 -286 111l51 102c72 -66 162 -102 237 -102c82 0 131 31 131 85c0 156 -378 69 -378 318
c0 120 103 195 255 195z" />
    <glyph glyph-name="Sacute" unicode="&#x15a;" horiz-adv-x="622" 
d="M476 874l-122 -98h-102l106 148zM322 705c91 0 180 -29 245 -72l-49 -104c-76 46 -152 65 -205 65c-69 0 -114 -26 -114 -73c0 -153 378 -71 377 -323c0 -125 -110 -202 -264 -202c-110 0 -214 45 -286 111l51 102c72 -66 162 -102 237 -102c82 0 131 31 131 85
c0 156 -378 69 -378 318c0 120 103 195 255 195z" />
    <glyph glyph-name="Scaron" unicode="&#x160;" horiz-adv-x="622" 
d="M151 920h102l63 -93l63 93h102l-108 -150h-114zM322 705c91 0 180 -29 245 -72l-49 -104c-76 46 -152 65 -205 65c-69 0 -114 -26 -114 -73c0 -153 378 -71 377 -323c0 -125 -110 -202 -264 -202c-110 0 -214 45 -286 111l51 102c72 -66 162 -102 237 -102
c82 0 131 31 131 85c0 156 -378 69 -378 318c0 120 103 195 255 195z" />
    <glyph glyph-name="Scedilla" unicode="&#x15e;" horiz-adv-x="622" 
d="M199 521c0 -153 378 -71 377 -323c0 -110 -85 -182 -210 -199l-23 -49c42 -8 70 -35 70 -79c0 -58 -47 -95 -106 -95c-33 0 -65 11 -88 28l22 54c17 -13 38 -20 58 -20c29 0 46 21 46 41c0 19 -15 38 -48 38c-11 0 -24 -2 -35 -5l36 84c-105 4 -203 48 -272 111l51 102
c72 -66 162 -102 237 -102c82 0 131 31 131 85c0 156 -378 69 -378 318c0 120 103 195 255 195c91 0 180 -29 245 -72l-49 -104c-76 46 -152 65 -205 65c-69 0 -114 -26 -114 -73z" />
    <glyph glyph-name="Scommaaccent" unicode="&#x218;" horiz-adv-x="622" 
d="M199 521c0 -153 378 -71 377 -323c0 -125 -110 -202 -264 -202c-110 0 -214 45 -286 111l51 102c72 -66 162 -102 237 -102c82 0 131 31 131 85c0 156 -378 69 -378 318c0 120 103 195 255 195c91 0 180 -29 245 -72l-49 -104c-76 46 -152 65 -205 65
c-69 0 -114 -26 -114 -73zM322 -49c32 0 61 -24 61 -64c0 -19 -7 -36 -18 -52l-57 -86h-59l38 86c-18 12 -27 31 -27 52c0 37 26 64 62 64z" />
    <glyph glyph-name="T" unicode="T" horiz-adv-x="579" 
d="M570 594h-222v-594h-118v594h-221v106h561v-106z" />
    <glyph glyph-name="Tcaron" unicode="&#x164;" horiz-adv-x="579" 
d="M129 920h102l63 -93l63 93h102l-108 -150h-114zM570 594h-222v-594h-118v594h-221v106h561v-106z" />
    <glyph glyph-name="Tcedilla" unicode="&#x162;" horiz-adv-x="579" 
d="M327 0l-24 -50c42 -8 70 -35 70 -79c0 -58 -47 -95 -106 -95c-33 0 -65 11 -88 28l22 54c17 -13 38 -20 58 -20c29 0 46 21 46 41c0 19 -15 38 -48 38c-11 0 -24 -2 -35 -5l37 88h-29v594h-221v106h561v-106h-222v-594h-21z" />
    <glyph glyph-name="Tcommaaccent" unicode="&#x21a;" horiz-adv-x="579" 
d="M570 700v-106h-222v-594h-118v594h-221v106h561zM282 -49c32 0 61 -24 61 -64c0 -19 -7 -36 -18 -52l-57 -86h-59l38 86c-18 12 -27 31 -27 52c0 37 26 64 62 64z" />
    <glyph glyph-name="U" unicode="U" horiz-adv-x="764" 
d="M687 700v-410c0 -183 -115 -295 -304 -295s-305 112 -305 295v410h118v-410c0 -118 73 -189 188 -189c114 0 185 70 185 189v410h118z" />
    <glyph glyph-name="Uacute" unicode="&#xda;" horiz-adv-x="764" 
d="M539 874l-122 -98h-102l106 148zM687 700v-410c0 -183 -115 -295 -304 -295s-305 112 -305 295v410h118v-410c0 -118 73 -189 188 -189c114 0 185 70 185 189v410h118z" />
    <glyph glyph-name="Ucircumflex" unicode="&#xdb;" horiz-adv-x="764" 
d="M538 779h-94l-62 88l-62 -88h-94l103 141h106zM687 700v-410c0 -183 -115 -295 -304 -295s-305 112 -305 295v410h118v-410c0 -118 73 -189 188 -189c114 0 185 70 185 189v410h118z" />
    <glyph glyph-name="Udieresis" unicode="&#xdc;" horiz-adv-x="764" 
d="M294 921c35 0 60 -27 60 -64c0 -36 -25 -63 -60 -63s-61 27 -61 63c0 37 26 64 61 64zM471 921c35 0 60 -27 60 -64c0 -36 -25 -63 -60 -63s-61 27 -61 63c0 37 26 64 61 64zM687 700v-410c0 -183 -115 -295 -304 -295s-305 112 -305 295v410h118v-410
c0 -118 73 -189 188 -189c114 0 185 70 185 189v410h118z" />
    <glyph glyph-name="Ugrave" unicode="&#xd9;" horiz-adv-x="764" 
d="M444 777h-102l-122 98l118 50zM687 700v-410c0 -183 -115 -295 -304 -295s-305 112 -305 295v410h118v-410c0 -118 73 -189 188 -189c114 0 185 70 185 189v410h118z" />
    <glyph glyph-name="Uhungarumlaut" unicode="&#x170;" horiz-adv-x="764" 
d="M417 884l-92 -110h-89l83 154zM582 884l-92 -110h-89l83 154zM687 700v-410c0 -183 -115 -295 -304 -295s-305 112 -305 295v410h118v-410c0 -118 73 -189 188 -189c114 0 185 70 185 189v410h118z" />
    <glyph glyph-name="Umacron" unicode="&#x16a;" horiz-adv-x="764" 
d="M510 809h-255v83h255v-83zM687 700v-410c0 -183 -115 -295 -304 -295s-305 112 -305 295v410h118v-410c0 -118 73 -189 188 -189c114 0 185 70 185 189v410h118z" />
    <glyph glyph-name="Uogonek" unicode="&#x172;" horiz-adv-x="765" 
d="M687 700v-410c0 -147 -75 -249 -203 -283c-36 -52 -53 -88 -53 -112c0 -20 12 -32 29 -32c19 0 35 13 50 32l33 -39c-23 -36 -58 -57 -95 -57c-39 0 -79 23 -79 78c0 35 17 74 48 119c-11 -1 -22 -1 -34 -1c-189 0 -305 112 -305 295v410h117v-410
c0 -118 74 -189 189 -189c114 0 185 70 185 189v410h118z" />
    <glyph glyph-name="Uring" unicode="&#x16e;" horiz-adv-x="764" 
d="M382 969c65 0 118 -53 118 -116c0 -64 -53 -116 -118 -116s-118 52 -118 116c0 63 53 116 118 116zM382 917c-37 0 -68 -29 -68 -64s31 -64 68 -64s68 29 68 64s-31 64 -68 64zM687 700v-410c0 -183 -115 -295 -304 -295s-305 112 -305 295v410h118v-410
c0 -118 73 -189 188 -189c114 0 185 70 185 189v410h118z" />
    <glyph glyph-name="V" unicode="V" horiz-adv-x="690" 
d="M404 0h-122l-279 700h127l216 -569l218 569h123z" />
    <glyph glyph-name="W" unicode="W" horiz-adv-x="1036" 
d="M812 0h-121l-166 546l-168 -546h-122l-232 700h127l170 -569l169 568l116 1l170 -569l169 569h122z" />
    <glyph glyph-name="Wacute" unicode="&#x1e82;" horiz-adv-x="1036" 
d="M680 874l-122 -98h-102l106 148zM812 0h-121l-166 546l-168 -546h-122l-232 700h127l170 -569l169 568l116 1l170 -569l169 569h122z" />
    <glyph glyph-name="Wcircumflex" unicode="&#x174;" horiz-adv-x="1036" 
d="M679 779h-94l-62 88l-62 -88h-94l103 141h106zM812 0h-121l-166 546l-168 -546h-122l-232 700h127l170 -569l169 568l116 1l170 -569l169 569h122z" />
    <glyph glyph-name="Wdieresis" unicode="&#x1e84;" horiz-adv-x="1036" 
d="M435 921c35 0 60 -27 60 -64c0 -36 -25 -63 -60 -63s-61 27 -61 63c0 37 26 64 61 64zM612 921c35 0 60 -27 60 -64c0 -36 -25 -63 -60 -63s-61 27 -61 63c0 37 26 64 61 64zM812 0h-121l-166 546l-168 -546h-122l-232 700h127l170 -569l169 568l116 1l170 -569l169 569
h122z" />
    <glyph glyph-name="Wgrave" unicode="&#x1e80;" horiz-adv-x="1036" 
d="M585 777h-102l-122 98l118 50zM812 0h-121l-166 546l-168 -546h-122l-232 700h127l170 -569l169 568l116 1l170 -569l169 569h122z" />
    <glyph glyph-name="X" unicode="X" horiz-adv-x="692" 
d="M416 364l255 -364h-141l-189 264l-188 -264h-138l255 359l-237 341h137l171 -243l172 243h138z" />
    <glyph glyph-name="Y" unicode="Y" horiz-adv-x="637" 
d="M379 233v-233h-117v229l-261 471h119l200 -341l196 341h120z" />
    <glyph glyph-name="Yacute" unicode="&#xdd;" horiz-adv-x="637" 
d="M353 776h-102l106 148l118 -50zM379 233v-233h-117v229l-261 471h119l200 -341l196 341h120z" />
    <glyph glyph-name="Ycircumflex" unicode="&#x176;" horiz-adv-x="637" 
d="M256 779h-94l103 141h106l103 -141h-94l-62 88zM379 233v-233h-117v229l-261 471h119l200 -341l196 341h120z" />
    <glyph glyph-name="Ydieresis" unicode="&#x178;" horiz-adv-x="637" 
d="M230 794c-35 0 -61 27 -61 63c0 37 26 64 61 64s60 -27 60 -64c0 -36 -25 -63 -60 -63zM407 794c-35 0 -61 27 -61 63c0 37 26 64 61 64s60 -27 60 -64c0 -36 -25 -63 -60 -63zM379 233v-233h-117v229l-261 471h119l200 -341l196 341h120z" />
    <glyph glyph-name="Ygrave" unicode="&#x1ef2;" horiz-adv-x="637" 
d="M278 777l-122 98l118 50l106 -148h-102zM379 233v-233h-117v229l-261 471h119l200 -341l196 341h120z" />
    <glyph glyph-name="Z" unicode="Z" horiz-adv-x="666" 
d="M623 615l-426 -509h431v-106h-591v85l427 509h-414v106h573v-85z" />
    <glyph glyph-name="Zacute" unicode="&#x179;" horiz-adv-x="666" 
d="M499 874l-122 -98h-102l106 148zM623 615l-426 -509h431v-106h-591v85l427 509h-414v106h573v-85z" />
    <glyph glyph-name="Zcaron" unicode="&#x17d;" horiz-adv-x="666" 
d="M174 920h102l63 -93l63 93h102l-108 -150h-114zM623 615l-426 -509h431v-106h-591v85l427 509h-414v106h573v-85z" />
    <glyph glyph-name="Zdotaccent" unicode="&#x17b;" horiz-adv-x="666" 
d="M342 922c38 0 67 -29 67 -70c0 -40 -29 -69 -67 -69s-67 29 -67 69c0 41 29 70 67 70zM623 615l-426 -509h431v-106h-591v85l427 509h-414v106h573v-85z" />
    <glyph glyph-name="a" unicode="a" horiz-adv-x="586" 
d="M404 0v65c-38 -47 -99 -70 -176 -70c-115 0 -187 71 -187 165c0 97 73 159 201 160h161v16c0 67 -43 107 -127 107c-51 0 -104 -18 -157 -54l-47 80c74 44 128 67 229 67c137 0 214 -70 215 -187l1 -349h-113zM252 86c82 0 145 43 151 101v49h-144
c-75 0 -110 -20 -110 -71c0 -48 39 -79 103 -79z" />
    <glyph glyph-name="aacute" unicode="&#xe1;" horiz-adv-x="586" 
d="M325 608h-102l106 148l118 -50zM404 0v65c-38 -47 -99 -70 -176 -70c-115 0 -187 71 -187 165c0 97 73 159 201 160h161v16c0 67 -43 107 -127 107c-51 0 -104 -18 -157 -54l-47 80c74 44 128 67 229 67c137 0 214 -70 215 -187l1 -349h-113zM252 86c82 0 145 43 151 101
v49h-144c-75 0 -110 -20 -110 -71c0 -48 39 -79 103 -79z" />
    <glyph glyph-name="abreve" unicode="&#x103;" horiz-adv-x="586" 
d="M290 606c-80 0 -138 57 -141 142h78c2 -38 28 -65 63 -65s61 27 63 65h78c-3 -85 -61 -142 -141 -142zM404 0v65c-38 -47 -99 -70 -176 -70c-115 0 -187 71 -187 165c0 97 73 159 201 160h161v16c0 67 -43 107 -127 107c-51 0 -104 -18 -157 -54l-47 80
c74 44 128 67 229 67c137 0 214 -70 215 -187l1 -349h-113zM252 86c82 0 145 43 151 101v49h-144c-75 0 -110 -20 -110 -71c0 -48 39 -79 103 -79z" />
    <glyph glyph-name="acircumflex" unicode="&#xe2;" horiz-adv-x="586" 
d="M228 611h-94l103 141h106l103 -141h-94l-62 88zM404 0v65c-38 -47 -99 -70 -176 -70c-115 0 -187 71 -187 165c0 97 73 159 201 160h161v16c0 67 -43 107 -127 107c-51 0 -104 -18 -157 -54l-47 80c74 44 128 67 229 67c137 0 214 -70 215 -187l1 -349h-113zM252 86
c82 0 145 43 151 101v49h-144c-75 0 -110 -20 -110 -71c0 -48 39 -79 103 -79z" />
    <glyph glyph-name="adieresis" unicode="&#xe4;" horiz-adv-x="586" 
d="M202 626c-35 0 -61 27 -61 63c0 37 26 64 61 64s60 -27 60 -64c0 -36 -25 -63 -60 -63zM379 626c-35 0 -61 27 -61 63c0 37 26 64 61 64s60 -27 60 -64c0 -36 -25 -63 -60 -63zM404 0v65c-38 -47 -99 -70 -176 -70c-115 0 -187 71 -187 165c0 97 73 159 201 160h161v16
c0 67 -43 107 -127 107c-51 0 -104 -18 -157 -54l-47 80c74 44 128 67 229 67c137 0 214 -70 215 -187l1 -349h-113zM252 86c82 0 145 43 151 101v49h-144c-75 0 -110 -20 -110 -71c0 -48 39 -79 103 -79z" />
    <glyph glyph-name="agrave" unicode="&#xe0;" horiz-adv-x="586" 
d="M250 609l-122 98l118 50l106 -148h-102zM404 0v65c-38 -47 -99 -70 -176 -70c-115 0 -187 71 -187 165c0 97 73 159 201 160h161v16c0 67 -43 107 -127 107c-51 0 -104 -18 -157 -54l-47 80c74 44 128 67 229 67c137 0 214 -70 215 -187l1 -349h-113zM252 86
c82 0 145 43 151 101v49h-144c-75 0 -110 -20 -110 -71c0 -48 39 -79 103 -79z" />
    <glyph glyph-name="amacron" unicode="&#x101;" horiz-adv-x="586" 
d="M418 641h-255v83h255v-83zM404 0v65c-38 -47 -99 -70 -176 -70c-115 0 -187 71 -187 165c0 97 73 159 201 160h161v16c0 67 -43 107 -127 107c-51 0 -104 -18 -157 -54l-47 80c74 44 128 67 229 67c137 0 214 -70 215 -187l1 -349h-113zM252 86c82 0 145 43 151 101v49
h-144c-75 0 -110 -20 -110 -71c0 -48 39 -79 103 -79z" />
    <glyph glyph-name="aogonek" unicode="&#x105;" horiz-adv-x="590" 
d="M301 536c137 0 214 -70 216 -187v-349h-34c-35 -48 -50 -82 -50 -105c0 -20 12 -32 30 -32s34 13 49 32l33 -39c-23 -36 -58 -57 -95 -57c-39 0 -79 23 -79 78c0 37 19 77 54 123h-21v65c-38 -47 -99 -70 -176 -70c-116 0 -187 71 -187 165c0 97 73 159 200 160h162v16
c-1 67 -43 107 -128 107c-50 0 -103 -18 -156 -54l-47 80c74 44 127 67 229 67zM404 236h-145c-76 0 -110 -20 -110 -71c0 -48 39 -79 103 -79c80 0 149 48 152 100v50z" />
    <glyph glyph-name="aring" unicode="&#xe5;" horiz-adv-x="586" 
d="M290 569c-65 0 -118 52 -118 116c0 63 53 116 118 116s118 -53 118 -116c0 -64 -53 -116 -118 -116zM290 749c-37 0 -68 -29 -68 -64s31 -64 68 -64s68 29 68 64s-31 64 -68 64zM404 0v65c-38 -47 -99 -70 -176 -70c-115 0 -187 71 -187 165c0 97 73 159 201 160h161v16
c0 67 -43 107 -127 107c-51 0 -104 -18 -157 -54l-47 80c74 44 128 67 229 67c137 0 214 -70 215 -187l1 -349h-113zM252 86c82 0 145 43 151 101v49h-144c-75 0 -110 -20 -110 -71c0 -48 39 -79 103 -79z" />
    <glyph glyph-name="atilde" unicode="&#xe3;" horiz-adv-x="586" 
d="M240 676c-24 0 -37 -17 -37 -49h-74c0 87 32 131 92 131c55 0 85 -55 119 -55c25 0 38 17 38 49h73c0 -87 -31 -131 -91 -131s-85 55 -120 55zM404 0v65c-38 -47 -99 -70 -176 -70c-115 0 -187 71 -187 165c0 97 73 159 201 160h161v16c0 67 -43 107 -127 107
c-51 0 -104 -18 -157 -54l-47 80c74 44 128 67 229 67c137 0 214 -70 215 -187l1 -349h-113zM252 86c82 0 145 43 151 101v49h-144c-75 0 -110 -20 -110 -71c0 -48 39 -79 103 -79z" />
    <glyph glyph-name="ae" unicode="&#xe6;" horiz-adv-x="974" 
d="M677 536c166 0 270 -119 264 -295h-420c12 -94 78 -152 168 -152c58 0 111 22 150 62l62 -65c-53 -57 -129 -90 -221 -90c-105 0 -185 48 -226 128c-43 -86 -122 -129 -227 -129c-114 0 -186 66 -186 160c0 96 75 150 202 151h162v30c0 67 -44 107 -128 107
c-57 0 -117 -19 -176 -54l-29 83c75 41 152 64 229 64c88 0 152 -29 187 -80c45 51 110 80 189 80zM521 303h305c-3 87 -61 149 -148 149c-85 0 -145 -62 -157 -149zM414 187l22 -19c-3 8 -5 17 -7 27l-23 5v44h-141c-74 0 -116 -28 -116 -79c0 -53 41 -89 104 -89
c71 0 128 30 161 111z" />
    <glyph glyph-name="b" unicode="b" horiz-adv-x="680" 
d="M391 536c151 0 254 -110 254 -272c0 -159 -100 -268 -252 -268c-85 0 -149 34 -188 96v-92h-115v742h115v-302c39 62 103 96 186 96zM367 94c95 0 162 72 162 174c0 99 -67 172 -162 172s-162 -72 -162 -172c0 -103 67 -174 162 -174z" />
    <glyph glyph-name="c" unicode="c" horiz-adv-x="564" 
d="M303 536c96 0 171 -31 220 -87l-63 -74c-37 38 -88 61 -152 60c-92 0 -158 -69 -158 -170s66 -170 158 -170c67 0 121 22 157 64l64 -64c-48 -63 -125 -99 -226 -99c-158 0 -268 109 -268 269c0 161 110 271 268 271z" />
    <glyph glyph-name="cacute" unicode="&#x107;" horiz-adv-x="564" 
d="M444 706l-122 -98h-102l106 148zM303 536c96 0 171 -31 220 -87l-63 -74c-37 38 -88 61 -152 60c-92 0 -158 -69 -158 -170s66 -170 158 -170c67 0 121 22 157 64l64 -64c-48 -63 -125 -99 -226 -99c-158 0 -268 109 -268 269c0 161 110 271 268 271z" />
    <glyph glyph-name="ccaron" unicode="&#x10d;" horiz-adv-x="564" 
d="M120 752h102l63 -93l63 93h102l-108 -150h-114zM303 536c96 0 171 -31 220 -87l-63 -74c-37 38 -88 61 -152 60c-92 0 -158 -69 -158 -170s66 -170 158 -170c67 0 121 22 157 64l64 -64c-48 -63 -125 -99 -226 -99c-158 0 -268 109 -268 269c0 161 110 271 268 271z" />
    <glyph glyph-name="ccedilla" unicode="&#xe7;" horiz-adv-x="564" 
d="M465 159l64 -64c-42 -55 -107 -90 -190 -97l-23 -48c42 -8 70 -35 70 -79c0 -58 -47 -95 -106 -95c-33 0 -65 11 -88 28l22 54c17 -13 38 -20 58 -20c29 0 46 21 46 41c0 19 -15 38 -48 38c-11 0 -24 -2 -35 -5l36 86c-141 13 -236 118 -236 267c0 161 110 271 268 271
c96 0 171 -31 220 -87l-63 -74c-37 38 -88 61 -152 60c-92 0 -158 -69 -158 -170s66 -170 158 -170c67 0 121 22 157 64z" />
    <glyph glyph-name="d" unicode="d" horiz-adv-x="682" 
d="M592 742v-742h-115v91c-38 -62 -102 -96 -187 -96c-153 0 -255 111 -255 273c0 160 103 269 253 269c86 0 150 -35 189 -97v302h115zM314 91c96 0 163 72 163 173c0 103 -67 175 -163 175s-163 -73 -164 -175c1 -101 67 -173 164 -173z" />
    <glyph glyph-name="eth" unicode="&#xf0;" horiz-adv-x="590" 
d="M503 636l-98 -32c95 -97 151 -217 151 -339c0 -164 -108 -270 -274 -270c-149 0 -246 90 -246 229c0 133 89 219 227 219c76 0 146 -32 178 -81c-22 71 -72 144 -139 207l-152 -50l-19 60l115 38c-38 29 -79 56 -123 77l76 53c57 -26 108 -58 153 -95l133 44zM289 97
c88 0 145 51 145 129c0 81 -57 133 -145 133c-87 0 -143 -50 -143 -128c0 -82 57 -134 143 -134z" />
    <glyph glyph-name="dcaron" unicode="&#x10f;" horiz-adv-x="719" 
d="M477 742h115v-742h-115v91c-38 -62 -102 -96 -187 -96c-153 0 -255 111 -255 273c0 160 103 269 253 269c86 0 150 -35 189 -97v302zM714 685c32 0 61 -24 61 -64c0 -20 -7 -37 -18 -53l-57 -86h-59l38 87c-18 12 -27 31 -27 52c0 37 26 64 62 64zM314 91
c96 0 163 72 163 173c0 103 -67 175 -163 175s-163 -73 -164 -175c1 -101 67 -173 164 -173z" />
    <glyph glyph-name="dcroat" unicode="&#x111;" horiz-adv-x="679" 
d="M661 616h-69v-616h-115v91c-38 -62 -102 -96 -187 -96c-153 0 -255 111 -255 273c0 160 103 269 253 269c86 0 150 -35 189 -97v176h-99v66h99v60h115v-60h69v-66zM314 91c96 0 163 72 163 173c0 103 -67 175 -163 175s-163 -73 -164 -175c1 -101 67 -173 164 -173z" />
    <glyph glyph-name="e" unicode="e" horiz-adv-x="588" 
d="M304 536c187 0 263 -122 249 -314h-402c18 -82 81 -133 165 -133c58 0 111 22 150 62l61 -65c-52 -57 -128 -90 -220 -90c-164 0 -272 109 -272 269c0 161 111 270 269 271zM149 306h304c-4 86 -61 138 -148 138c-84 0 -143 -53 -156 -138z" />
    <glyph glyph-name="eacute" unicode="&#xe9;" horiz-adv-x="588" 
d="M333 608h-102l106 148l118 -50zM304 536c187 0 263 -122 249 -314h-402c18 -82 81 -133 165 -133c58 0 111 22 150 62l61 -65c-52 -57 -128 -90 -220 -90c-164 0 -272 109 -272 269c0 161 111 270 269 271zM149 306h304c-4 86 -61 138 -148 138c-84 0 -143 -53 -156 -138
z" />
    <glyph glyph-name="ecaron" unicode="&#x11b;" horiz-adv-x="588" 
d="M239 602l-108 150h102l63 -93l63 93h102l-108 -150h-114zM304 536c187 0 263 -122 249 -314h-402c18 -82 81 -133 165 -133c58 0 111 22 150 62l61 -65c-52 -57 -128 -90 -220 -90c-164 0 -272 109 -272 269c0 161 111 270 269 271zM149 306h304c-4 86 -61 138 -148 138
c-84 0 -143 -53 -156 -138z" />
    <glyph glyph-name="ecircumflex" unicode="&#xea;" horiz-adv-x="588" 
d="M237 611h-94l103 141h106l103 -141h-94l-62 88zM304 536c187 0 263 -122 249 -314h-402c18 -82 81 -133 165 -133c58 0 111 22 150 62l61 -65c-52 -57 -128 -90 -220 -90c-164 0 -272 109 -272 269c0 161 111 270 269 271zM149 306h304c-4 86 -61 138 -148 138
c-84 0 -143 -53 -156 -138z" />
    <glyph glyph-name="edieresis" unicode="&#xeb;" horiz-adv-x="588" 
d="M211 626c-35 0 -61 27 -61 63c0 37 26 64 61 64s60 -27 60 -64c0 -36 -25 -63 -60 -63zM388 626c-35 0 -61 27 -61 63c0 37 26 64 61 64s60 -27 60 -64c0 -36 -25 -63 -60 -63zM304 536c187 0 263 -122 249 -314h-402c18 -82 81 -133 165 -133c58 0 111 22 150 62l61 -65
c-52 -57 -128 -90 -220 -90c-164 0 -272 109 -272 269c0 161 111 270 269 271zM149 306h304c-4 86 -61 138 -148 138c-84 0 -143 -53 -156 -138z" />
    <glyph glyph-name="edotaccent" unicode="&#x117;" horiz-adv-x="588" 
d="M299 615c-38 0 -67 29 -67 69c0 41 29 70 67 70s67 -29 67 -70c0 -40 -29 -69 -67 -69zM304 536c187 0 263 -122 249 -314h-402c18 -82 81 -133 165 -133c58 0 111 22 150 62l61 -65c-52 -57 -128 -90 -220 -90c-164 0 -272 109 -272 269c0 161 111 270 269 271zM149 306
h304c-4 86 -61 138 -148 138c-84 0 -143 -53 -156 -138z" />
    <glyph glyph-name="egrave" unicode="&#xe8;" horiz-adv-x="588" 
d="M258 609l-122 98l118 50l106 -148h-102zM304 536c187 0 263 -122 249 -314h-402c18 -82 81 -133 165 -133c58 0 111 22 150 62l61 -65c-52 -57 -128 -90 -220 -90c-164 0 -272 109 -272 269c0 161 111 270 269 271zM149 306h304c-4 86 -61 138 -148 138
c-84 0 -143 -53 -156 -138z" />
    <glyph glyph-name="emacron" unicode="&#x113;" horiz-adv-x="588" 
d="M426 641h-255v83h255v-83zM304 536c187 0 263 -122 249 -314h-402c18 -82 81 -133 165 -133c58 0 111 22 150 62l61 -65c-52 -57 -128 -90 -220 -90c-164 0 -272 109 -272 269c0 161 111 270 269 271zM149 306h304c-4 86 -61 138 -148 138c-84 0 -143 -53 -156 -138z" />
    <glyph glyph-name="eogonek" unicode="&#x119;" horiz-adv-x="588" 
d="M304 535c177 5 263 -117 250 -313h-403c18 -80 75 -134 165 -134c56 0 111 23 150 63l61 -65c-60 -71 -104 -144 -104 -189c0 -23 12 -34 30 -34c19 0 35 15 48 32l33 -39c-22 -34 -55 -57 -94 -57s-79 22 -79 79c0 43 22 95 63 150c-39 -23 -76 -32 -122 -32
c-157 0 -267 109 -267 271c0 151 95 264 269 268zM306 444c-86 0 -149 -56 -157 -138h304c-4 82 -61 138 -147 138z" />
    <glyph glyph-name="f" unicode="f" horiz-adv-x="343" 
d="M293 647c-39 0 -72 -22 -72 -72v-63h139v-86h-139v-426h-114v426h-70v86h70v52c0 124 91 183 183 183c43 0 86 -12 120 -37l-44 -88c-22 16 -49 25 -73 25z" />
    <glyph glyph-name="g" unicode="g" horiz-adv-x="640" 
d="M565 532v-480c0 -153 -109 -249 -276 -249c-83 0 -156 26 -221 70l49 83c50 -37 102 -58 167 -58c101 0 167 59 167 151v67c-36 -58 -96 -90 -176 -90c-144 0 -240 104 -240 257c0 150 95 252 236 253c82 1 143 -32 180 -90v86h114zM298 116c90 0 153 68 153 164
s-63 163 -153 163c-91 0 -154 -68 -155 -163c1 -96 63 -164 155 -164z" />
    <glyph glyph-name="gbreve" unicode="&#x11f;" horiz-adv-x="640" 
d="M320 606c-80 0 -138 57 -141 142h78c2 -38 28 -65 63 -65s61 27 63 65h78c-3 -85 -61 -142 -141 -142zM565 532v-480c0 -153 -109 -249 -276 -249c-83 0 -156 26 -221 70l49 83c50 -37 102 -58 167 -58c101 0 167 59 167 151v67c-36 -58 -96 -90 -176 -90
c-144 0 -240 104 -240 257c0 150 95 252 236 253c82 1 143 -32 180 -90v86h114zM298 116c90 0 153 68 153 164s-63 163 -153 163c-91 0 -154 -68 -155 -163c1 -96 63 -164 155 -164z" />
    <glyph glyph-name="gcommaaccent" unicode="&#x123;" horiz-adv-x="640" 
d="M314 581c-32 0 -61 24 -61 64c0 19 7 36 18 52l57 86h59l-38 -86c18 -12 27 -31 27 -52c0 -37 -26 -64 -62 -64zM565 532v-480c0 -153 -109 -249 -276 -249c-83 0 -156 26 -221 70l49 83c50 -37 102 -58 167 -58c101 0 167 59 167 151v67c-36 -58 -96 -90 -176 -90
c-144 0 -240 104 -240 257c0 150 95 252 236 253c82 1 143 -32 180 -90v86h114zM298 116c90 0 153 68 153 164s-63 163 -153 163c-91 0 -154 -68 -155 -163c1 -96 63 -164 155 -164z" />
    <glyph glyph-name="h" unicode="h" horiz-adv-x="669" 
d="M402 536c124 0 198 -78 198 -205v-331h-115v299c0 80 -48 129 -128 129c-95 -1 -152 -72 -152 -166v-262h-115v742h115v-314c38 75 106 108 197 108z" />
    <glyph glyph-name="hbar" unicode="&#x127;" horiz-adv-x="815" 
d="M402 536c124 0 198 -78 198 -205v-331h-115v299c0 80 -48 129 -128 129c-95 -1 -152 -72 -152 -166v-262h-115v589h-84v69h84v84h115v-84h141v-69h-141v-161c38 75 106 108 197 108z" />
    <glyph glyph-name="i" unicode="i" horiz-adv-x="284" 
d="M142 754c38 0 67 -29 67 -70c0 -40 -29 -69 -67 -69s-67 29 -67 69c0 41 29 70 67 70zM199 0h-114v532h114v-532z" />
    <glyph glyph-name="dotlessi" unicode="&#x131;" horiz-adv-x="284" 
d="M199 0h-114v532h114v-532z" />
    <glyph glyph-name="iacute" unicode="&#xed;" horiz-adv-x="284" 
d="M299 706l-122 -98h-102l106 148zM199 0h-114v532h114v-532z" />
    <glyph glyph-name="icircumflex" unicode="&#xee;" horiz-adv-x="284" 
d="M298 611h-94l-62 88l-62 -88h-94l103 141h106zM199 0h-114v532h114v-532z" />
    <glyph glyph-name="idieresis" unicode="&#xef;" horiz-adv-x="284" 
d="M54 753c35 0 60 -27 60 -64c0 -36 -25 -63 -60 -63s-61 27 -61 63c0 37 26 64 61 64zM231 753c35 0 60 -27 60 -64c0 -36 -25 -63 -60 -63s-61 27 -61 63c0 37 26 64 61 64zM199 0h-114v532h114v-532z" />
    <glyph glyph-name="igrave" unicode="&#xec;" horiz-adv-x="284" 
d="M204 609h-102l-122 98l118 50zM199 0h-114v532h114v-532z" />
    <glyph glyph-name="ij" unicode="&#x133;" horiz-adv-x="571" 
d="M142 754c38 0 67 -29 67 -70c0 -40 -29 -69 -67 -69s-67 29 -67 69c0 41 29 70 67 70zM425 754c42 0 71 -29 71 -70c0 -40 -29 -70 -71 -70c-40 0 -70 30 -70 70c0 41 30 70 70 70zM199 0h-114v532h114v-532zM482 532v-547c0 -126 -87 -184 -172 -184
c-40 0 -80 13 -111 36l38 89c21 -15 46 -24 68 -24c35 0 63 21 63 72v558h114z" />
    <glyph glyph-name="imacron" unicode="&#x12b;" horiz-adv-x="284" 
d="M270 641h-255v83h255v-83zM199 0h-114v532h114v-532z" />
    <glyph glyph-name="iogonek" unicode="&#x12f;" horiz-adv-x="267" 
d="M135 754c39 0 67 -29 67 -70s-28 -70 -67 -70c-38 0 -67 29 -67 70s29 70 67 70zM193 0h-24c-34 -48 -49 -82 -49 -105c0 -20 12 -32 30 -32s34 13 49 32l33 -39c-23 -36 -58 -57 -95 -57c-39 0 -79 23 -79 78c0 37 19 76 52 123h-32v532h115v-532z" />
    <glyph glyph-name="itilde" unicode="&#x129;" horiz-adv-x="284" 
d="M73 758c55 0 85 -55 119 -55c25 0 38 17 38 49h73c0 -87 -31 -131 -91 -131s-85 55 -120 55c-24 0 -37 -17 -37 -49h-74c0 87 32 131 92 131zM199 0h-114v532h114v-532z" />
    <glyph glyph-name="j" unicode="j" horiz-adv-x="287" 
d="M141 754c42 0 71 -29 71 -70c0 -40 -29 -70 -71 -70c-40 0 -70 30 -70 70c0 41 30 70 70 70zM198 532v-547c0 -126 -87 -184 -172 -184c-40 0 -80 13 -111 36l38 89c21 -15 46 -24 68 -24c35 0 63 21 63 72v558h114z" />
    <glyph glyph-name="dotlessj" unicode="&#x237;" horiz-adv-x="274" 
d="M199 532v-556c0 -112 -61 -175 -163 -174c-47 1 -91 13 -127 36l29 84c23 -15 48 -23 74 -24c47 -1 72 32 72 95v539h115z" />
    <glyph glyph-name="jcircumflex" unicode="&#x135;" horiz-adv-x="274" 
d="M293 611h-94l-62 88l-62 -88h-94l103 141h106zM199 532v-556c0 -112 -61 -175 -163 -174c-47 1 -91 13 -127 36l29 84c23 -15 48 -23 74 -24c47 -1 72 32 72 95v539h115z" />
    <glyph glyph-name="k" unicode="k" horiz-adv-x="595" 
d="M295 244l-90 -95v-149h-115v742h115v-448l235 238h132l-197 -206l212 -326h-136z" />
    <glyph glyph-name="kcedilla" unicode="&#x137;" horiz-adv-x="595" 
d="M173 0l-23 -47c41 -7 69 -38 70 -76c1 -59 -43 -98 -110 -98c-27 0 -62 10 -85 27l23 54c13 -11 34 -19 52 -19c32 0 53 20 52 47c0 26 -20 43 -48 43c-9 0 -24 -2 -32 -3l34 72h-16v742h115v-448l235 238h132l-197 -206l212 -326h-136l-156 244l-90 -95v-149h-32z" />
    <glyph glyph-name="kgreenlandic" unicode="&#x138;" horiz-adv-x="590" 
d="M291 244l-92 -96v-148h-114v532h114v-238l236 238h132l-197 -206l212 -326h-136z" />
    <glyph glyph-name="l" unicode="l" horiz-adv-x="295" 
d="M205 0h-115v742h115v-742z" />
    <glyph glyph-name="lacute" unicode="&#x13a;" horiz-adv-x="295" 
d="M305 916l-122 -98h-102l106 148zM205 0h-115v742h115v-742z" />
    <glyph glyph-name="lcaron" unicode="&#x13e;" horiz-adv-x="320" 
d="M90 742h115v-742h-115v742zM315 685c32 0 61 -24 61 -64c0 -20 -7 -37 -18 -53l-57 -86h-59l38 87c-18 12 -27 31 -27 52c0 37 26 64 62 64z" />
    <glyph glyph-name="lcommaaccent" unicode="&#x13c;" horiz-adv-x="295" 
d="M205 0h-115v742h115v-742zM154 -49c32 0 61 -24 61 -64c0 -19 -7 -36 -18 -52l-57 -86h-59l38 86c-18 12 -27 31 -27 52c0 37 26 64 62 64z" />
    <glyph glyph-name="ldot" unicode="&#x140;" horiz-adv-x="333" 
d="M205 0h-115v742h115v-742zM304 374c35 0 61 -27 61 -65c0 -36 -26 -63 -61 -63c-36 0 -62 27 -62 63c0 38 26 65 62 65z" />
    <glyph glyph-name="lslash" unicode="&#x142;" horiz-adv-x="310" 
d="M222 421v-421h-115v388l-108 -32l-20 76l128 38v272h115v-238l95 28l20 -77z" />
    <glyph glyph-name="m" unicode="m" horiz-adv-x="1043" 
d="M779 536c122 0 195 -78 195 -205v-331h-115v299c0 81 -48 130 -126 130c-91 -3 -146 -73 -146 -166v-263h-115v299c0 81 -47 130 -125 130c-92 -3 -148 -73 -148 -166v-263h-114v532h114v-103c37 75 105 107 193 107c95 0 160 -47 185 -128c34 89 105 128 202 128z" />
    <glyph glyph-name="n" unicode="n" horiz-adv-x="663" 
d="M396 536c124 0 198 -78 198 -205v-331h-115v299c0 80 -48 129 -128 129c-88 -1 -143 -62 -151 -145v-283h-115v532h115v-102c38 74 106 106 196 106z" />
    <glyph glyph-name="nacute" unicode="&#x144;" horiz-adv-x="663" 
d="M381 608h-102l106 148l118 -50zM396 536c124 0 198 -78 198 -205v-331h-115v299c0 80 -48 129 -128 129c-88 -1 -143 -62 -151 -145v-283h-115v532h115v-102c38 74 106 106 196 106z" />
    <glyph glyph-name="ncaron" unicode="&#x148;" horiz-adv-x="663" 
d="M286 602l-108 150h102l63 -93l63 93h102l-108 -150h-114zM396 536c124 0 198 -78 198 -205v-331h-115v299c0 80 -48 129 -128 129c-88 -1 -143 -62 -151 -145v-283h-115v532h115v-102c38 74 106 106 196 106z" />
    <glyph glyph-name="ncommaaccent" unicode="&#x146;" horiz-adv-x="663" 
d="M396 536c124 0 198 -78 198 -205v-331h-115v299c0 80 -48 129 -128 129c-88 -1 -143 -62 -151 -145v-283h-115v532h115v-102c38 74 106 106 196 106zM342 -49c32 0 61 -24 61 -64c0 -19 -7 -36 -18 -52l-57 -86h-59l38 86c-18 12 -27 31 -27 52c0 37 26 64 62 64z" />
    <glyph glyph-name="ntilde" unicode="&#xf1;" horiz-adv-x="663" 
d="M296 676c-24 0 -37 -17 -37 -49h-74c0 87 32 131 92 131c55 0 85 -55 119 -55c25 0 38 17 38 49h73c0 -87 -31 -131 -91 -131s-85 55 -120 55zM396 536c124 0 198 -78 198 -205v-331h-115v299c0 80 -48 129 -128 129c-88 -1 -143 -62 -151 -145v-283h-115v532h115v-102
c38 74 106 106 196 106z" />
    <glyph glyph-name="o" unicode="o" horiz-adv-x="625" 
d="M313 536c164 0 277 -109 277 -270c0 -160 -113 -270 -277 -270c-165 0 -278 110 -278 270c0 161 113 270 278 270zM313 437c-96 0 -163 -70 -163 -172c0 -103 67 -173 163 -173c95 0 162 70 162 173c0 102 -67 172 -162 172z" />
    <glyph glyph-name="oacute" unicode="&#xf3;" horiz-adv-x="625" 
d="M469 706l-122 -98h-102l106 148zM313 536c164 0 277 -109 277 -270c0 -160 -113 -270 -277 -270c-165 0 -278 110 -278 270c0 161 113 270 278 270zM313 437c-96 0 -163 -70 -163 -172c0 -103 67 -173 163 -173c95 0 162 70 162 173c0 102 -67 172 -162 172z" />
    <glyph glyph-name="ocircumflex" unicode="&#xf4;" horiz-adv-x="625" 
d="M469 611h-94l-62 88l-62 -88h-94l103 141h106zM313 536c164 0 277 -109 277 -270c0 -160 -113 -270 -277 -270c-165 0 -278 110 -278 270c0 161 113 270 278 270zM313 437c-96 0 -163 -70 -163 -172c0 -103 67 -173 163 -173c95 0 162 70 162 173c0 102 -67 172 -162 172
z" />
    <glyph glyph-name="odieresis" unicode="&#xf6;" horiz-adv-x="625" 
d="M225 753c35 0 60 -27 60 -64c0 -36 -25 -63 -60 -63s-61 27 -61 63c0 37 26 64 61 64zM402 753c35 0 60 -27 60 -64c0 -36 -25 -63 -60 -63s-61 27 -61 63c0 37 26 64 61 64zM313 536c164 0 277 -109 277 -270c0 -160 -113 -270 -277 -270c-165 0 -278 110 -278 270
c0 161 113 270 278 270zM313 437c-96 0 -163 -70 -163 -172c0 -103 67 -173 163 -173c95 0 162 70 162 173c0 102 -67 172 -162 172z" />
    <glyph glyph-name="ograve" unicode="&#xf2;" horiz-adv-x="625" 
d="M374 609h-102l-122 98l118 50zM313 536c164 0 277 -109 277 -270c0 -160 -113 -270 -277 -270c-165 0 -278 110 -278 270c0 161 113 270 278 270zM313 437c-96 0 -163 -70 -163 -172c0 -103 67 -173 163 -173c95 0 162 70 162 173c0 102 -67 172 -162 172z" />
    <glyph glyph-name="ohungarumlaut" unicode="&#x151;" horiz-adv-x="625" 
d="M348 716l-92 -110h-89l83 154zM513 716l-92 -110h-89l83 154zM313 536c164 0 277 -109 277 -270c0 -160 -113 -270 -277 -270c-165 0 -278 110 -278 270c0 161 113 270 278 270zM313 437c-96 0 -163 -70 -163 -172c0 -103 67 -173 163 -173c95 0 162 70 162 173
c0 102 -67 172 -162 172z" />
    <glyph glyph-name="omacron" unicode="&#x14d;" horiz-adv-x="625" 
d="M440 641h-255v83h255v-83zM313 536c164 0 277 -109 277 -270c0 -160 -113 -270 -277 -270c-165 0 -278 110 -278 270c0 161 113 270 278 270zM313 437c-96 0 -163 -70 -163 -172c0 -103 67 -173 163 -173c95 0 162 70 162 173c0 102 -67 172 -162 172z" />
    <glyph glyph-name="oslash" unicode="&#xf8;" horiz-adv-x="625" 
d="M468 665l-47 -147c103 -37 169 -129 169 -252c0 -160 -113 -270 -277 -270c-21 0 -41 2 -59 5l-48 -147h-52l52 160c-105 37 -171 130 -171 252c0 161 113 270 278 270c21 0 41 -2 60 -5l43 134h52zM144 265c0 -77 34 -136 90 -164l111 343c-10 2 -21 3 -32 3
c-100 0 -169 -74 -169 -182zM313 83c99 0 169 73 169 182c0 76 -35 136 -90 164l-111 -343c10 -2 21 -3 32 -3z" />
    <glyph glyph-name="otilde" unicode="&#xf5;" horiz-adv-x="625" 
d="M243 758c55 0 85 -55 119 -55c25 0 38 17 38 49h73c0 -87 -31 -131 -91 -131s-85 55 -120 55c-24 0 -37 -17 -37 -49h-74c0 87 32 131 92 131zM313 536c164 0 277 -109 277 -270c0 -160 -113 -270 -277 -270c-165 0 -278 110 -278 270c0 161 113 270 278 270zM313 437
c-96 0 -163 -70 -163 -172c0 -103 67 -173 163 -173c95 0 162 70 162 173c0 102 -67 172 -162 172z" />
    <glyph glyph-name="oe" unicode="&#x153;" horiz-adv-x="1040" 
d="M742 536c166 0 270 -119 265 -295h-423c12 -94 78 -152 170 -152c58 0 111 22 151 62l61 -65c-53 -57 -129 -90 -222 -90c-99 0 -173 44 -214 118c-42 -74 -118 -118 -217 -118c-165 0 -278 110 -278 270c0 161 113 270 278 270c100 0 176 -44 217 -118
c42 73 116 118 212 118zM584 303h308c-3 87 -62 148 -149 148c-86 0 -147 -60 -159 -148zM313 92c95 0 162 70 162 173c0 102 -67 172 -162 172c-96 0 -163 -70 -163 -172c0 -103 67 -173 163 -173z" />
    <glyph glyph-name="p" unicode="p" horiz-adv-x="680" 
d="M391 536c151 0 254 -110 254 -272c0 -159 -100 -268 -252 -268c-85 0 -149 34 -188 96v-286h-115v726h115v-92c39 62 103 96 186 96zM367 94c95 0 162 72 162 174c0 99 -67 172 -162 172s-162 -72 -162 -172c0 -103 67 -174 162 -174z" />
    <glyph glyph-name="thorn" unicode="&#xfe;" horiz-adv-x="680" 
d="M391 536c151 0 254 -110 254 -272c0 -159 -100 -268 -252 -268c-85 0 -149 34 -188 96v-286h-115v936h115v-302c39 62 103 96 186 96zM367 94c95 0 162 72 162 174c0 99 -67 172 -162 172s-162 -72 -162 -172c0 -103 67 -174 162 -174z" />
    <glyph glyph-name="q" unicode="q" horiz-adv-x="682" 
d="M592 532v-726h-115v285c-38 -62 -102 -96 -187 -96c-153 0 -255 111 -255 273c0 160 103 269 253 269c86 0 150 -35 189 -97v92h115zM314 91c96 0 163 72 163 173c0 103 -67 175 -163 175s-163 -73 -164 -175c1 -101 67 -173 164 -173z" />
    <glyph glyph-name="r" unicode="r" horiz-adv-x="394" 
d="M200 532v-106c36 72 100 110 184 110v-110c-107 6 -175 -57 -184 -148v-278h-115v532h115z" />
    <glyph glyph-name="racute" unicode="&#x155;" horiz-adv-x="394" 
d="M238 608h-102l106 148l118 -50zM200 532v-106c36 72 100 110 184 110v-110c-107 6 -175 -57 -184 -148v-278h-115v532h115z" />
    <glyph glyph-name="rcaron" unicode="&#x159;" horiz-adv-x="394" 
d="M143 602l-108 150h102l63 -93l63 93h102l-108 -150h-114zM200 532v-106c36 72 100 110 184 110v-110c-107 6 -175 -57 -184 -148v-278h-115v532h115z" />
    <glyph glyph-name="rcommaaccent" unicode="&#x157;" horiz-adv-x="394" 
d="M200 532v-106c36 72 100 110 184 110v-110c-107 6 -175 -57 -184 -148v-278h-115v532h115zM146 -49c32 0 61 -24 61 -64c0 -19 -7 -36 -18 -52l-57 -86h-59l38 86c-18 12 -27 31 -27 52c0 37 26 64 62 64z" />
    <glyph glyph-name="s" unicode="s" horiz-adv-x="470" 
d="M244 537c67 0 138 -20 186 -54l-42 -85c-47 29 -106 47 -153 47c-45 0 -78 -15 -78 -53c0 -98 283 -45 282 -238c0 -109 -97 -158 -204 -158c-78 0 -161 26 -214 74l41 82c46 -41 120 -66 178 -66c49 0 87 17 87 57c0 109 -280 48 -279 240c0 108 94 154 196 154z" />
    <glyph glyph-name="sacute" unicode="&#x15b;" horiz-adv-x="470" 
d="M398 706l-122 -98h-102l106 148zM244 537c67 0 138 -20 186 -54l-42 -85c-47 29 -106 47 -153 47c-45 0 -78 -15 -78 -53c0 -98 283 -45 282 -238c0 -109 -97 -158 -204 -158c-78 0 -161 26 -214 74l41 82c46 -41 120 -66 178 -66c49 0 87 17 87 57
c0 109 -280 48 -279 240c0 108 94 154 196 154z" />
    <glyph glyph-name="scaron" unicode="&#x161;" horiz-adv-x="470" 
d="M73 752h102l63 -93l63 93h102l-108 -150h-114zM244 537c67 0 138 -20 186 -54l-42 -85c-47 29 -106 47 -153 47c-45 0 -78 -15 -78 -53c0 -98 283 -45 282 -238c0 -109 -97 -158 -204 -158c-78 0 -161 26 -214 74l41 82c46 -41 120 -66 178 -66c49 0 87 17 87 57
c0 109 -280 48 -279 240c0 108 94 154 196 154z" />
    <glyph glyph-name="scedilla" unicode="&#x15f;" horiz-adv-x="470" 
d="M157 392c0 -98 283 -45 282 -238c0 -92 -69 -141 -154 -154l-24 -50c42 -8 70 -35 70 -79c0 -58 -47 -95 -106 -95c-33 0 -65 11 -88 28l22 54c17 -13 38 -20 58 -20c29 0 46 21 46 41c0 19 -15 38 -48 38c-11 0 -24 -2 -35 -5l36 85c-72 3 -146 29 -195 73l41 82
c46 -41 120 -66 178 -66c49 0 87 17 87 57c0 109 -280 48 -279 240c0 108 94 154 196 154c67 0 138 -20 186 -54l-42 -85c-47 29 -106 47 -153 47c-45 0 -78 -15 -78 -53z" />
    <glyph glyph-name="scommaaccent" unicode="&#x219;" horiz-adv-x="470" 
d="M157 392c0 -98 283 -45 282 -238c0 -109 -97 -158 -204 -158c-78 0 -161 26 -214 74l41 82c46 -41 120 -66 178 -66c49 0 87 17 87 57c0 109 -280 48 -279 240c0 108 94 154 196 154c67 0 138 -20 186 -54l-42 -85c-47 29 -106 47 -153 47c-45 0 -78 -15 -78 -53z
M240 -49c32 0 61 -24 61 -64c0 -19 -7 -36 -18 -52l-57 -86h-59l38 86c-18 12 -27 31 -27 52c0 37 26 64 62 64z" />
    <glyph glyph-name="germandbls" unicode="&#xdf;" horiz-adv-x="654" 
d="M333 747c137 0 233 -76 233 -193c0 -78 -45 -146 -116 -173c90 -18 156 -75 156 -171c0 -122 -103 -210 -263 -210h-51v89h60c86 0 142 49 142 118c0 75 -66 118 -167 118h-13v88c86 0 141 48 141 123c0 73 -50 118 -124 118c-86 0 -139 -61 -139 -158v-496h-114v488
c0 157 96 259 255 259z" />
    <glyph glyph-name="t" unicode="t" horiz-adv-x="407" 
d="M357 122l29 -88c-42 -25 -86 -39 -131 -39c-80 0 -149 46 -149 155v276h-75v86h75v146h114v-146h157v-86h-157v-255c0 -55 21 -72 57 -72c24 0 49 8 80 23z" />
    <glyph glyph-name="tcaron" unicode="&#x165;" horiz-adv-x="382" 
d="M350 789c32 0 61 -24 61 -64c0 -20 -7 -37 -18 -53l-57 -86h-59l38 87c-18 12 -27 31 -27 52c0 37 26 64 62 64zM277 99c24 0 49 8 80 23l29 -88c-42 -25 -86 -39 -131 -39c-80 0 -149 46 -149 155v276h-75v86h75v146h114v-146h157v-86h-157v-255c0 -55 21 -72 57 -72z
" />
    <glyph glyph-name="tcedilla" unicode="&#x163;" horiz-adv-x="407" 
d="M295 -1l-23 -49c42 -8 70 -35 70 -79c0 -58 -47 -95 -106 -95c-33 0 -65 11 -88 28l22 54c17 -13 38 -20 58 -20c29 0 46 21 46 41c0 19 -15 38 -48 38c-11 0 -24 -2 -35 -5l36 85c-67 10 -121 57 -121 153v276h-75v86h75v146h114v-146h157v-86h-157v-255
c0 -55 21 -72 57 -72c24 0 49 8 80 23l29 -88c-29 -18 -60 -30 -91 -35z" />
    <glyph glyph-name="tcommaaccent" unicode="&#x21b;" horiz-adv-x="407" 
d="M357 122l29 -88c-42 -25 -86 -39 -131 -39c-80 0 -149 46 -149 155v276h-75v86h75v146h114v-146h157v-86h-157v-255c0 -55 21 -72 57 -72c24 0 49 8 80 23zM251 -49c32 0 61 -24 61 -64c0 -19 -7 -36 -18 -52l-57 -86h-59l38 86c-18 12 -27 31 -27 52c0 37 26 64 62 64z
" />
    <glyph glyph-name="u" unicode="u" horiz-adv-x="653" 
d="M568 532v-532h-115v104c-36 -74 -103 -107 -190 -108c-122 0 -195 78 -195 205v331h115v-299c0 -80 47 -129 124 -129c92 2 146 73 146 166v262h115z" />
    <glyph glyph-name="uacute" unicode="&#xfa;" horiz-adv-x="653" 
d="M358 608h-102l106 148l118 -50zM568 532v-532h-115v104c-36 -74 -103 -107 -190 -108c-122 0 -195 78 -195 205v331h115v-299c0 -80 47 -129 124 -129c92 2 146 73 146 166v262h115z" />
    <glyph glyph-name="ucircumflex" unicode="&#xfb;" horiz-adv-x="653" 
d="M261 611h-94l103 141h106l103 -141h-94l-62 88zM568 532v-532h-115v104c-36 -74 -103 -107 -190 -108c-122 0 -195 78 -195 205v331h115v-299c0 -80 47 -129 124 -129c92 2 146 73 146 166v262h115z" />
    <glyph glyph-name="udieresis" unicode="&#xfc;" horiz-adv-x="653" 
d="M235 626c-35 0 -61 27 -61 63c0 37 26 64 61 64s60 -27 60 -64c0 -36 -25 -63 -60 -63zM412 626c-35 0 -61 27 -61 63c0 37 26 64 61 64s60 -27 60 -64c0 -36 -25 -63 -60 -63zM568 532v-532h-115v104c-36 -74 -103 -107 -190 -108c-122 0 -195 78 -195 205v331h115v-299
c0 -80 47 -129 124 -129c92 2 146 73 146 166v262h115z" />
    <glyph glyph-name="ugrave" unicode="&#xf9;" horiz-adv-x="653" 
d="M283 609l-122 98l118 50l106 -148h-102zM568 532v-532h-115v104c-36 -74 -103 -107 -190 -108c-122 0 -195 78 -195 205v331h115v-299c0 -80 47 -129 124 -129c92 2 146 73 146 166v262h115z" />
    <glyph glyph-name="uhungarumlaut" unicode="&#x171;" horiz-adv-x="653" 
d="M266 606h-89l83 154l98 -44zM342 606l83 154l98 -44l-92 -110h-89zM568 532v-532h-115v104c-36 -74 -103 -107 -190 -108c-122 0 -195 78 -195 205v331h115v-299c0 -80 47 -129 124 -129c92 2 146 73 146 166v262h115z" />
    <glyph glyph-name="umacron" unicode="&#x16b;" horiz-adv-x="653" 
d="M451 641h-255v83h255v-83zM568 532v-532h-115v104c-36 -74 -103 -107 -190 -108c-122 0 -195 78 -195 205v331h115v-299c0 -80 47 -129 124 -129c92 2 146 73 146 166v262h115z" />
    <glyph glyph-name="uogonek" unicode="&#x173;" horiz-adv-x="648" 
d="M567 0h-25c-36 -48 -50 -82 -50 -105c0 -20 12 -32 30 -32s34 13 49 32l33 -39c-23 -36 -58 -57 -95 -57c-38 0 -79 23 -79 78c0 37 19 76 52 123h-29v99c-37 -70 -103 -102 -190 -103c-122 0 -194 78 -194 205v331h114v-299c0 -80 48 -129 125 -129c84 2 137 63 145 145
v283h114v-532z" />
    <glyph glyph-name="uring" unicode="&#x16f;" horiz-adv-x="653" 
d="M323 569c-65 0 -118 52 -118 116c0 63 53 116 118 116s118 -53 118 -116c0 -64 -53 -116 -118 -116zM323 749c-37 0 -68 -29 -68 -64s31 -64 68 -64s68 29 68 64s-31 64 -68 64zM568 532v-532h-115v104c-36 -74 -103 -107 -190 -108c-122 0 -195 78 -195 205v331h115
v-299c0 -80 47 -129 124 -129c92 2 146 73 146 166v262h115z" />
    <glyph glyph-name="v" unicode="v" horiz-adv-x="525" 
d="M326 0h-119l-206 532h120l148 -419l146 419h115z" />
    <glyph glyph-name="w" unicode="w" horiz-adv-x="893" 
d="M704 0h-119l-135 394l-135 -394h-118l-196 532h118l138 -418l134 418h119l135 -418l136 418h117z" />
    <glyph glyph-name="wacute" unicode="&#x1e83;" horiz-adv-x="893" 
d="M604 706l-122 -98h-102l106 148zM704 0h-119l-135 394l-135 -394h-118l-196 532h118l138 -418l134 418h119l135 -418l136 418h117z" />
    <glyph glyph-name="wcircumflex" unicode="&#x175;" horiz-adv-x="893" 
d="M603 611h-94l-62 88l-62 -88h-94l103 141h106zM704 0h-119l-135 394l-135 -394h-118l-196 532h118l138 -418l134 418h119l135 -418l136 418h117z" />
    <glyph glyph-name="wdieresis" unicode="&#x1e85;" horiz-adv-x="893" 
d="M359 753c35 0 60 -27 60 -64c0 -36 -25 -63 -60 -63s-61 27 -61 63c0 37 26 64 61 64zM536 753c35 0 60 -27 60 -64c0 -36 -25 -63 -60 -63s-61 27 -61 63c0 37 26 64 61 64zM704 0h-119l-135 394l-135 -394h-118l-196 532h118l138 -418l134 418h119l135 -418l136 418
h117z" />
    <glyph glyph-name="wgrave" unicode="&#x1e81;" horiz-adv-x="893" 
d="M509 609h-102l-122 98l118 50zM704 0h-119l-135 394l-135 -394h-118l-196 532h118l138 -418l134 418h119l135 -418l136 418h117z" />
    <glyph glyph-name="x" unicode="x" horiz-adv-x="554" 
d="M278 350l121 182h126l-171 -259l183 -273h-132l-127 195l-136 -195h-128l188 273l-175 259h132z" />
    <glyph glyph-name="y" unicode="y" horiz-adv-x="531" 
d="M536 532l-242 -605c-33 -84 -93 -126 -173 -126c-48 0 -86 14 -123 45l49 89c25 -18 45 -26 69 -26c35 0 63 19 81 59l18 40l-220 524h119l159 -403l148 403h115z" />
    <glyph glyph-name="yacute" unicode="&#xfd;" horiz-adv-x="531" 
d="M424 706l-122 -98h-102l106 148zM536 532l-242 -605c-33 -84 -93 -126 -173 -126c-48 0 -86 14 -123 45l49 89c25 -18 45 -26 69 -26c35 0 63 19 81 59l18 40l-220 524h119l159 -403l148 403h115z" />
    <glyph glyph-name="ycircumflex" unicode="&#x177;" horiz-adv-x="531" 
d="M423 611h-94l-62 88l-62 -88h-94l103 141h106zM536 532l-242 -605c-33 -84 -93 -126 -173 -126c-48 0 -86 14 -123 45l49 89c25 -18 45 -26 69 -26c35 0 63 19 81 59l18 40l-220 524h119l159 -403l148 403h115z" />
    <glyph glyph-name="ydieresis" unicode="&#xff;" horiz-adv-x="531" 
d="M179 753c35 0 60 -27 60 -64c0 -36 -25 -63 -60 -63s-61 27 -61 63c0 37 26 64 61 64zM356 753c35 0 60 -27 60 -64c0 -36 -25 -63 -60 -63s-61 27 -61 63c0 37 26 64 61 64zM536 532l-242 -605c-33 -84 -93 -126 -173 -126c-48 0 -86 14 -123 45l49 89
c25 -18 45 -26 69 -26c35 0 63 19 81 59l18 40l-220 524h119l159 -403l148 403h115z" />
    <glyph glyph-name="ygrave" unicode="&#x1ef3;" horiz-adv-x="531" 
d="M329 609h-102l-122 98l118 50zM536 532l-242 -605c-33 -84 -93 -126 -173 -126c-48 0 -86 14 -123 45l49 89c25 -18 45 -26 69 -26c35 0 63 19 81 59l18 40l-220 524h119l159 -403l148 403h115z" />
    <glyph glyph-name="z" unicode="z" horiz-adv-x="537" 
d="M491 454l-304 -360l313 -1v-94l-455 1v78l304 360h-295v94l437 -1v-77z" />
    <glyph glyph-name="zacute" unicode="&#x17a;" horiz-adv-x="537" 
d="M425 706l-122 -98h-102l106 148zM491 454l-304 -360l313 -1v-94l-455 1v78l304 360h-295v94l437 -1v-77z" />
    <glyph glyph-name="zcaron" unicode="&#x17e;" horiz-adv-x="537" 
d="M100 752h102l63 -93l63 93h102l-108 -150h-114zM491 454l-304 -360l313 -1v-94l-455 1v78l304 360h-295v94l437 -1v-77z" />
    <glyph glyph-name="zdotaccent" unicode="&#x17c;" horiz-adv-x="537" 
d="M268 754c38 0 67 -29 67 -70c0 -40 -29 -69 -67 -69s-67 29 -67 69c0 41 29 70 67 70zM491 454l-304 -360l313 -1v-94l-455 1v78l304 360h-295v94l437 -1v-77z" />
    <glyph glyph-name="ordfeminine" unicode="&#xaa;" horiz-adv-x="385" 
d="M198 777c87 0 137 -42 137 -113v-206h-79v50c-25 -35 -64 -53 -115 -53c-67 0 -108 39 -108 95c0 58 45 90 125 91h97v14c0 37 -25 59 -76 59c-33 0 -69 -11 -107 -30l-20 56c48 23 98 37 146 37zM168 509c39 0 69 15 87 49v42h-81c-41 0 -65 -15 -65 -43
c0 -29 23 -48 59 -48z" />
    <glyph glyph-name="ordmasculine" unicode="&#xba;" horiz-adv-x="407" 
d="M203 776c103 0 174 -64 174 -160s-71 -160 -174 -160s-173 64 -173 160s70 160 173 160zM203 710c-54 0 -92 -38 -92 -95s38 -95 92 -95s91 38 91 95s-37 95 -91 95z" />
    <glyph glyph-name="Delta" unicode="&#x394;" horiz-adv-x="738" 
d="M737 0h-736l309 700h121zM571 93l-204 481l-204 -481h408z" />
    <glyph glyph-name="Omega" unicode="&#x2126;" horiz-adv-x="882" 
d="M441 706c207 0 360 -142 360 -334c0 -100 -57 -212 -137 -272h209v-100h-332v93c90 53 155 166 155 269c0 139 -108 239 -255 239s-254 -100 -254 -239c0 -103 65 -216 155 -270v-92h-333v100h210c-80 60 -137 171 -137 272c0 192 152 334 359 334z" />
    <glyph glyph-name="mu" unicode="&#xb5;" horiz-adv-x="675" 
d="M590 532v-532h-115v104c-36 -74 -103 -107 -190 -108c-30 0 -56 5 -80 13v-203h-115v726h115v-299c0 -80 47 -129 124 -129c92 2 146 73 146 166v262h115z" />
    <glyph glyph-name="pi" unicode="&#x3c0;" horiz-adv-x="725" 
d="M715 444h-147v-444h-96v444h-147l-50 -444h-96l49 444h-51c-56 0 -97 -35 -96 -84c0 -23 10 -52 26 -76l-80 -31c-22 36 -36 85 -37 127c-1 86 73 152 173 152h552v-88z" />
    <glyph glyph-name="zero" unicode="0" horiz-adv-x="691" 
d="M346 703c191 0 297 -126 297 -353s-106 -353 -297 -353c-192 0 -298 126 -298 353s106 353 298 353zM346 610c-118 0 -177 -82 -177 -260c0 -177 59 -260 177 -260c117 0 176 83 176 260c0 178 -59 260 -176 260z" />
    <glyph glyph-name="one" unicode="1" horiz-adv-x="387" 
d="M268 0h-118v595h-137v105h255v-700z" />
    <glyph glyph-name="two" unicode="2" horiz-adv-x="588" 
d="M288 705c132 0 223 -69 223 -176c0 -71 -54 -150 -128 -230l-182 -193h342v-106h-498v86l258 277c51 52 85 109 85 149c0 56 -44 90 -117 90c-61 0 -132 -34 -191 -88l-47 91c76 62 165 100 255 100z" />
    <glyph glyph-name="three" unicode="3" horiz-adv-x="539" 
d="M262 409l36 -4c117 -10 197 -78 197 -188c0 -131 -99 -222 -255 -222c-86 0 -176 30 -236 76l49 96c50 -47 115 -73 179 -73c93 0 147 48 147 120c0 76 -55 115 -148 115h-97v69l182 196h-280v105h426v-74z" />
    <glyph glyph-name="four" unicode="4" horiz-adv-x="599" 
d="M156 277h208v166h110v-166h102v-105h-102v-172h-110v172h-334v88l239 440h114z" />
    <glyph glyph-name="five" unicode="5" horiz-adv-x="577" 
d="M506 594h-318v-151l96 1c152 0 250 -90 250 -213c0 -142 -102 -235 -259 -235c-83 0 -180 32 -249 80l47 96c56 -47 126 -74 189 -74c91 0 146 47 146 126c0 71 -55 115 -145 115c-42 0 -137 -4 -184 -9v370h426z" />
    <glyph glyph-name="six" unicode="6" horiz-adv-x="615" 
d="M350 705c69 0 152 -21 209 -53l-46 -89c-43 28 -102 44 -155 44c-136 0 -199 -102 -195 -253c37 65 103 99 191 99c140 0 225 -87 225 -223c0 -145 -97 -235 -246 -235c-177 0 -285 126 -285 341c0 223 117 369 302 369zM332 360c-95 0 -151 -61 -150 -133
c-1 -61 44 -130 145 -130c85 0 142 49 142 134c0 80 -52 129 -137 129z" />
    <glyph glyph-name="seven" unicode="7" horiz-adv-x="570" 
d="M546 610l-279 -610h-125l272 594h-272l-1 -98h-104v204h509v-90z" />
    <glyph glyph-name="eight" unicode="8" horiz-adv-x="626" 
d="M313 705c144 0 235 -69 235 -181c0 -68 -39 -121 -104 -150c85 -28 139 -93 139 -178c0 -125 -104 -201 -270 -201c-165 0 -269 76 -269 199c0 86 55 152 144 180c-68 31 -109 86 -109 154c0 110 91 177 234 177zM313 620c-84 0 -134 -38 -134 -103s50 -102 134 -102
c85 0 134 37 134 102s-49 103 -134 103zM313 323c-99 0 -157 -43 -157 -116c0 -76 57 -119 157 -119s158 43 158 119c0 73 -58 116 -158 116z" />
    <glyph glyph-name="nine" unicode="9" horiz-adv-x="615" 
d="M271 -5c-69 0 -152 21 -209 53l46 89c43 -28 102 -44 155 -44c136 0 199 102 195 253c-37 -65 -103 -99 -191 -99c-140 0 -225 87 -225 223c0 145 97 235 246 235c177 0 285 -126 285 -341c0 -223 -117 -369 -302 -369zM289 340c95 0 151 61 150 133
c1 61 -44 130 -145 130c-85 0 -142 -49 -142 -134c0 -80 52 -129 137 -129z" />
    <glyph glyph-name="fraction" unicode="&#x2044;" horiz-adv-x="80" 
d="M-277 0l515 700h110l-514 -700h-111z" />
    <glyph glyph-name="onehalf" unicode="&#xbd;" horiz-adv-x="839" 
d="M99 287v344h-83v69h167v-413h-84zM50 0l515 700h110l-514 -700h-111zM647 416c82 0 139 -41 139 -105c0 -43 -32 -90 -80 -136l-108 -108h206v-67h-311v57l157 160c29 29 49 61 49 83c0 29 -24 47 -65 47c-36 0 -80 -20 -117 -52l-33 61c49 38 105 60 163 60z" />
    <glyph glyph-name="onequarter" unicode="&#xbc;" horiz-adv-x="817" 
d="M99 287v344h-83v69h167v-413h-84zM50 0l515 700h110l-514 -700h-111zM655 159v102h79v-102h61v-62h-61v-97h-79v97h-204v59l143 257h80l-139 -254h120z" />
    <glyph glyph-name="threequarters" unicode="&#xbe;" horiz-adv-x="878" 
d="M112 0l515 700h110l-514 -700h-111zM181 529l22 -2c69 -7 117 -47 117 -112c0 -77 -62 -132 -159 -132c-55 0 -113 19 -150 46l35 66c31 -31 69 -48 109 -48c52 0 83 26 83 67s-31 62 -84 62h-62v46l112 114h-173v62h269v-49zM717 159v102h79v-102h61v-62h-61v-97h-79v97
h-204v59l143 257h80l-139 -254h120z" />
    <glyph glyph-name="oneeighth" unicode="&#x215b;" horiz-adv-x="834" 
d="M99 287v344h-83v69h167v-413h-84zM50 0l515 700h110l-514 -700h-111zM630 416c90 0 148 -41 148 -108c0 -38 -24 -70 -61 -87c51 -18 82 -56 82 -105c0 -74 -65 -119 -168 -119c-104 0 -169 45 -169 118c0 49 33 88 86 106c-40 18 -64 51 -64 90c0 65 57 105 146 105z
M631 360c-49 0 -77 -21 -77 -56c0 -36 28 -56 77 -56c48 0 76 20 76 56c0 35 -28 56 -76 56zM630 186c-56 0 -89 -23 -89 -62c0 -42 33 -65 90 -65c56 0 89 23 89 64c0 40 -32 63 -90 63z" />
    <glyph glyph-name="threeeighths" unicode="&#x215c;" horiz-adv-x="896" 
d="M112 0l515 700h110l-514 -700h-111zM181 529l22 -2c69 -7 117 -47 117 -112c0 -77 -62 -132 -159 -132c-55 0 -113 19 -150 46l35 66c31 -31 69 -48 109 -48c52 0 83 26 83 67s-31 62 -84 62h-62v46l112 114h-173v62h269v-49zM692 416c90 0 148 -41 148 -108
c0 -38 -24 -70 -61 -87c51 -18 82 -56 82 -105c0 -74 -65 -119 -168 -119c-104 0 -169 45 -169 118c0 49 33 88 86 106c-40 18 -64 51 -64 90c0 65 57 105 146 105zM693 360c-49 0 -77 -21 -77 -56c0 -36 28 -56 77 -56c48 0 76 20 76 56c0 35 -28 56 -76 56zM692 186
c-56 0 -89 -23 -89 -62c0 -42 33 -65 90 -65c56 0 89 23 89 64c0 40 -32 63 -90 63z" />
    <glyph glyph-name="fiveeighths" unicode="&#x215d;" horiz-adv-x="914" 
d="M134 633v-96c15 4 40 6 53 6c95 0 156 -46 156 -119c0 -85 -64 -140 -163 -140c-52 0 -114 19 -157 48l34 66c34 -33 76 -50 114 -50c52 0 83 26 83 71c0 38 -31 61 -83 61c-24 0 -85 -3 -114 -8v228h268v-67h-191zM130 0l515 700h110l-514 -700h-111zM710 416
c90 0 148 -41 148 -108c0 -38 -24 -70 -61 -87c51 -18 82 -56 82 -105c0 -74 -65 -119 -168 -119c-104 0 -169 45 -169 118c0 49 33 88 86 106c-40 18 -64 51 -64 90c0 65 57 105 146 105zM711 360c-49 0 -77 -21 -77 -56c0 -36 28 -56 77 -56c48 0 76 20 76 56
c0 35 -28 56 -76 56zM710 186c-56 0 -89 -23 -89 -62c0 -42 33 -65 90 -65c56 0 89 23 89 64c0 40 -32 63 -90 63z" />
    <glyph glyph-name="seveneighths" unicode="&#x215e;" horiz-adv-x="881" 
d="M184 287h-89l165 346h-154v-61h-74v128h319v-60zM97 0l515 700h110l-514 -700h-111zM677 416c90 0 148 -41 148 -108c0 -38 -24 -70 -61 -87c51 -18 82 -56 82 -105c0 -74 -65 -119 -168 -119c-104 0 -169 45 -169 118c0 49 33 88 86 106c-40 18 -64 51 -64 90
c0 65 57 105 146 105zM678 360c-49 0 -77 -21 -77 -56c0 -36 28 -56 77 -56c48 0 76 20 76 56c0 35 -28 56 -76 56zM677 186c-56 0 -89 -23 -89 -62c0 -42 33 -65 90 -65c56 0 89 23 89 64c0 40 -32 63 -90 63z" />
    <glyph glyph-name="zero.dnom" horiz-adv-x="447" 
d="M223 415c115 0 185 -78 185 -208c0 -131 -70 -209 -185 -209s-185 78 -185 209c0 130 70 208 185 208zM223 348c-69 0 -108 -52 -108 -141c0 -90 39 -141 108 -141s109 51 109 141c0 89 -40 141 -109 141z" />
    <glyph glyph-name="one.dnom" horiz-adv-x="262" 
d="M99 0v345h-83v68h167v-413h-84z" />
    <glyph glyph-name="two.dnom" horiz-adv-x="383" 
d="M191 416c82 0 139 -41 139 -105c0 -43 -32 -90 -80 -136l-108 -108h206v-67h-311v57l157 160c29 29 49 61 49 83c0 29 -24 47 -65 47c-36 0 -80 -20 -117 -52l-33 61c49 38 105 60 163 60z" />
    <glyph glyph-name="three.dnom" horiz-adv-x="355" 
d="M181 243l22 -3c69 -7 117 -47 117 -112c0 -77 -62 -131 -159 -131c-55 0 -113 18 -150 46l35 65c31 -31 69 -47 109 -47c52 0 83 26 83 66c0 41 -31 62 -84 62h-62v46l112 114h-173v63h269v-49z" />
    <glyph glyph-name="four.dnom" horiz-adv-x="394" 
d="M232 159v102h79v-102h61v-62h-61v-97h-79v97h-204v59l143 257h80l-139 -254h120z" />
    <glyph glyph-name="five.dnom" horiz-adv-x="377" 
d="M134 347v-97c15 4 40 7 53 7c95 0 156 -47 156 -120c0 -85 -64 -140 -163 -140c-52 0 -114 20 -157 48l34 66c34 -32 76 -50 114 -50c52 0 83 26 83 71c0 39 -31 62 -83 62c-24 0 -85 -3 -114 -9v228h268v-66h-191z" />
    <glyph glyph-name="six.dnom" horiz-adv-x="401" 
d="M228 416c44 0 95 -12 131 -32l-32 -60c-27 17 -61 26 -95 26c-77 0 -119 -53 -112 -145c15 38 56 63 114 63c83 0 136 -52 136 -132c0 -86 -61 -139 -154 -139c-110 0 -178 75 -178 202c0 131 74 217 190 217zM215 206c-53 0 -84 -31 -84 -72c0 -33 25 -69 81 -69
c49 0 80 26 80 72c0 44 -29 69 -77 69z" />
    <glyph glyph-name="seven.dnom" horiz-adv-x="374" 
d="M184 0h-89l165 347h-154v-61h-74v127h319v-60z" />
    <glyph glyph-name="eight.dnom" horiz-adv-x="407" 
d="M203 416c90 0 148 -41 148 -108c0 -38 -24 -70 -61 -87c51 -18 82 -56 82 -105c0 -74 -65 -119 -168 -119c-104 0 -169 45 -169 118c0 49 33 88 86 106c-40 18 -64 51 -64 90c0 65 57 105 146 105zM204 360c-49 0 -77 -21 -77 -56c0 -36 28 -56 77 -56c48 0 76 20 76 56
c0 35 -28 56 -76 56zM203 186c-56 0 -89 -23 -89 -62c0 -42 33 -65 90 -65c56 0 89 23 89 64c0 40 -32 63 -90 63z" />
    <glyph glyph-name="nine.dnom" horiz-adv-x="403" 
d="M176 -3c-45 0 -95 12 -132 32l33 60c26 -17 60 -26 94 -26c78 0 120 53 113 145c-16 -38 -56 -64 -114 -64c-83 0 -137 53 -137 133c0 86 61 139 154 139c111 0 178 -76 178 -203c0 -130 -74 -216 -189 -216zM188 207c54 0 84 31 84 71c0 34 -24 70 -81 70
c-49 0 -79 -26 -79 -72c0 -43 28 -69 76 -69z" />
    <glyph glyph-name="zero.numr" horiz-adv-x="447" 
d="M223 702c115 0 185 -78 185 -208c0 -131 -70 -210 -185 -210s-185 79 -185 210c0 130 70 208 185 208zM223 634c-69 0 -108 -51 -108 -140c0 -90 39 -142 108 -142s109 52 109 142c0 89 -40 140 -109 140z" />
    <glyph glyph-name="one.numr" horiz-adv-x="262" 
d="M99 287v344h-83v69h167v-413h-84z" />
    <glyph glyph-name="two.numr" horiz-adv-x="383" 
d="M191 703c82 0 139 -41 139 -105c0 -43 -32 -90 -80 -136l-108 -109h206v-66h-311v56l157 161c29 28 49 60 49 82c0 30 -24 47 -65 47c-36 0 -80 -20 -117 -52l-33 62c49 37 105 60 163 60z" />
    <glyph glyph-name="three.numr" horiz-adv-x="355" 
d="M181 529l22 -2c69 -7 117 -47 117 -112c0 -77 -62 -132 -159 -132c-55 0 -113 19 -150 46l35 66c31 -31 69 -48 109 -48c52 0 83 26 83 67s-31 62 -84 62h-62v46l112 114h-173v62h269v-49z" />
    <glyph glyph-name="four.numr" horiz-adv-x="394" 
d="M232 446v101h79v-101h61v-62h-61v-97h-79v97h-204v59l143 257h80l-139 -254h120z" />
    <glyph glyph-name="five.numr" horiz-adv-x="377" 
d="M134 633v-96c15 4 40 6 53 6c95 0 156 -46 156 -119c0 -85 -64 -140 -163 -140c-52 0 -114 19 -157 48l34 66c34 -33 76 -50 114 -50c52 0 83 26 83 71c0 38 -31 61 -83 61c-24 0 -85 -3 -114 -8v228h268v-67h-191z" />
    <glyph glyph-name="six.numr" horiz-adv-x="401" 
d="M228 703c44 0 95 -13 131 -32l-32 -61c-27 17 -61 26 -95 26c-77 0 -119 -53 -112 -145c15 39 56 64 114 64c83 0 136 -52 136 -133c0 -85 -61 -139 -154 -139c-110 0 -178 76 -178 203c0 131 74 217 190 217zM215 492c-53 0 -84 -31 -84 -71c0 -34 25 -69 81 -69
c49 0 80 26 80 72c0 43 -29 68 -77 68z" />
    <glyph glyph-name="seven.numr" horiz-adv-x="374" 
d="M184 287h-89l165 346h-154v-61h-74v128h319v-60z" />
    <glyph glyph-name="eight.numr" horiz-adv-x="407" 
d="M203 703c90 0 148 -41 148 -108c0 -39 -24 -70 -61 -87c51 -18 82 -57 82 -105c0 -74 -65 -120 -168 -120c-104 0 -169 46 -169 119c0 49 33 88 86 106c-40 18 -64 50 -64 90c0 65 57 105 146 105zM204 646c-49 0 -77 -20 -77 -56c0 -35 28 -55 77 -55c48 0 76 20 76 55
c0 36 -28 56 -76 56zM203 473c-56 0 -89 -23 -89 -63c0 -41 33 -64 90 -64c56 0 89 22 89 64c0 40 -32 63 -90 63z" />
    <glyph glyph-name="nine.numr" horiz-adv-x="403" 
d="M176 283c-45 0 -95 13 -132 33l33 60c26 -17 60 -26 94 -26c78 0 120 52 113 145c-16 -38 -56 -64 -114 -64c-83 0 -137 52 -137 133c0 86 61 139 154 139c111 0 178 -76 178 -203c0 -131 -74 -217 -189 -217zM188 494c54 0 84 31 84 71c0 34 -24 69 -81 69
c-49 0 -79 -26 -79 -71c0 -44 28 -69 76 -69z" />
    <glyph glyph-name="onesuperior" unicode="&#xb9;" horiz-adv-x="262" 
d="M99 287v344h-83v69h167v-413h-84z" />
    <glyph glyph-name="twosuperior" unicode="&#xb2;" horiz-adv-x="383" 
d="M191 703c82 0 139 -41 139 -105c0 -43 -32 -90 -80 -136l-108 -109h206v-66h-311v56l157 161c29 28 49 60 49 82c0 30 -24 47 -65 47c-36 0 -80 -20 -117 -52l-33 62c49 37 105 60 163 60z" />
    <glyph glyph-name="threesuperior" unicode="&#xb3;" horiz-adv-x="355" 
d="M181 529l22 -2c69 -7 117 -47 117 -112c0 -77 -62 -132 -159 -132c-55 0 -113 19 -150 46l35 66c31 -31 69 -48 109 -48c52 0 83 26 83 67s-31 62 -84 62h-62v46l112 114h-173v62h269v-49z" />
    <glyph glyph-name="asterisk" unicode="*" horiz-adv-x="348" 
d="M203 511l1 -103h-60l1 103l-89 -52l-31 55l90 51l-90 49l31 57l89 -53l-1 103h60l-1 -103l89 52l30 -56l-90 -49l90 -51l-30 -56z" />
    <glyph glyph-name="backslash" unicode="\" horiz-adv-x="545" 
d="M228 816l317 -933h-98l-317 933h98z" />
    <glyph glyph-name="bullet" unicode="&#x2022;" horiz-adv-x="281" 
d="M140 366c55 0 95 -41 95 -98s-40 -100 -95 -100c-54 0 -94 43 -94 100s40 98 94 98z" />
    <glyph glyph-name="colon" unicode=":" horiz-adv-x="212" 
d="M109 420c36 0 63 -27 63 -65c0 -39 -27 -67 -63 -67s-63 28 -63 67c0 38 27 65 63 65zM109 123c36 0 63 -27 63 -65c0 -39 -27 -67 -63 -67s-63 28 -63 67c0 38 27 65 63 65z" />
    <glyph glyph-name="comma" unicode="," horiz-adv-x="214" 
d="M109 121c32 0 61 -24 61 -64c0 -20 -7 -37 -18 -53l-57 -86h-59l38 87c-18 12 -27 31 -27 52c0 37 26 64 62 64z" />
    <glyph glyph-name="ellipsis" unicode="&#x2026;" horiz-adv-x="608" 
d="M106 118c34 0 60 -26 60 -63s-26 -64 -60 -64s-60 27 -60 64s26 63 60 63zM304 118c34 0 60 -26 60 -63s-26 -64 -60 -64s-60 27 -60 64s26 63 60 63zM502 118c34 0 60 -26 60 -63s-26 -64 -60 -64s-60 27 -60 64s26 63 60 63z" />
    <glyph glyph-name="exclam" unicode="!" horiz-adv-x="210" 
d="M174 519l-18 -296h-73l-18 296v172h109v-172zM120 123c36 0 63 -27 63 -65c0 -39 -27 -67 -63 -67s-63 28 -63 67c0 38 27 65 63 65z" />
    <glyph glyph-name="exclamdown" unicode="&#xa1;" horiz-adv-x="209" 
d="M117 408c-36 0 -63 27 -63 65c0 39 27 67 63 67s63 -28 63 -67c0 -38 -27 -65 -63 -65zM63 13l18 295h73l18 -295v-173h-109v173z" />
    <glyph glyph-name="numbersign" unicode="#" horiz-adv-x="725" 
d="M546 435l-22 -176h140l-8 -86h-142l-22 -173h-84l21 173h-177l-22 -173h-84l21 173h-140l8 86h143l21 176h-139l8 86h142l22 179h85l-22 -179h177l22 179h85l-22 -179h139l-7 -86h-143zM461 435h-177l-22 -176h178z" />
    <glyph glyph-name="period" unicode="." horiz-adv-x="218" 
d="M109 123c36 0 63 -27 63 -65c0 -39 -27 -67 -63 -67s-63 28 -63 67c0 38 27 65 63 65z" />
    <glyph glyph-name="periodcentered" unicode="&#xb7;" horiz-adv-x="212" 
d="M106 350c34 0 60 -26 60 -63c0 -36 -26 -63 -60 -63s-60 27 -60 63c0 37 26 63 60 63z" />
    <glyph glyph-name="question" unicode="?" horiz-adv-x="443" 
d="M95 495l-90 1c4 127 83 199 207 199c120 0 200 -58 200 -167c0 -158 -158 -165 -158 -300h-88c0 161 139 162 139 283c0 58 -41 86 -103 86c-65 0 -104 -34 -107 -102zM209 123c36 0 63 -27 63 -65c0 -39 -27 -67 -63 -67s-63 28 -63 67c0 38 27 65 63 65z" />
    <glyph glyph-name="questiondown" unicode="&#xbf;" horiz-adv-x="443" 
d="M234 408c-36 0 -63 27 -63 65c0 39 27 67 63 67s63 -28 63 -67c0 -38 -27 -65 -63 -65zM348 36l90 -1c-4 -126 -83 -199 -207 -199c-120 0 -200 58 -200 167c0 158 158 165 158 300h88c0 -161 -139 -162 -139 -282c0 -59 41 -87 103 -87c65 0 104 34 107 102z" />
    <glyph glyph-name="quotedbl" unicode="&#x22;" horiz-adv-x="362" 
d="M148 454h-88v246h88v-246zM302 454h-88v246h88v-246z" />
    <glyph glyph-name="quotesingle" unicode="'" horiz-adv-x="208" 
d="M148 454h-88v246h88v-246z" />
    <glyph glyph-name="semicolon" unicode=";" horiz-adv-x="216" 
d="M109 288c-36 0 -63 28 -63 67c0 38 27 65 63 65s63 -27 63 -65c0 -39 -27 -67 -63 -67zM109 121c32 0 61 -24 61 -64c0 -20 -7 -37 -18 -53l-57 -86h-59l38 87c-18 12 -27 31 -27 52c0 37 26 64 62 64z" />
    <glyph glyph-name="slash" unicode="/" horiz-adv-x="331" 
d="M77 -117h-98l317 933h98z" />
    <glyph glyph-name="underscore" unicode="_" horiz-adv-x="566" 
d="M566 -204h-566v70h566v-70z" />
    <glyph glyph-name="braceleft" unicode="{" horiz-adv-x="329" 
d="M214 580v-164c0 -64 -19 -95 -70 -108c51 -12 70 -43 70 -107v-164c0 -50 24 -71 95 -71v-92h-43c-112 0 -156 35 -156 128v206c0 38 -13 53 -43 53h-31v95h31c30 0 43 15 43 53v207c0 92 44 127 156 127h43v-92c-71 0 -95 -21 -95 -71z" />
    <glyph glyph-name="braceright" unicode="}" horiz-adv-x="402" 
d="M402 356v-95h-31c-30 0 -43 -15 -43 -53v-206c0 -93 -44 -128 -156 -128h-43v92c71 0 95 21 95 71v164c0 64 19 95 70 108c-51 12 -70 43 -70 107v164c0 50 -24 71 -95 71v92h43c112 0 156 -35 156 -127v-207c0 -38 13 -53 43 -53h31z" />
    <glyph glyph-name="bracketleft" unicode="[" horiz-adv-x="345" 
d="M319 650h-124v-682h124v-92h-227v866h227v-92z" />
    <glyph glyph-name="bracketright" unicode="]" horiz-adv-x="473" 
d="M381 742v-866h-227v92h124v682h-124v92h227z" />
    <glyph glyph-name="parenleft" unicode="(" horiz-adv-x="319" 
d="M199 742h104c-73 -114 -118 -267 -118 -433s45 -319 118 -433h-104c-79 114 -122 267 -122 433s43 319 122 433z" />
    <glyph glyph-name="parenright" unicode=")" horiz-adv-x="345" 
d="M119 742h104c79 -114 122 -267 122 -433s-43 -319 -122 -433h-104c73 114 118 267 118 433s-45 319 -118 433z" />
    <glyph glyph-name="emdash" unicode="&#x2014;" horiz-adv-x="691" 
d="M691 225h-691v79h691v-79z" />
    <glyph glyph-name="endash" unicode="&#x2013;" horiz-adv-x="405" 
d="M405 225h-405v79h405v-79z" />
    <glyph glyph-name="hyphen" unicode="-" horiz-adv-x="368" 
d="M307 265h-246v79h246v-79z" />
    <glyph glyph-name="softhyphen" unicode="&#xad;" horiz-adv-x="368" 
d="M307 265h-246v79h246v-79z" />
    <glyph glyph-name="guillemotleft" unicode="&#xab;" horiz-adv-x="456" 
d="M128 260l107 -174h-96l-116 174l116 174h96zM308 260l107 -174h-96l-116 174l116 174h96z" />
    <glyph glyph-name="guillemotright" unicode="&#xbb;" horiz-adv-x="468" 
d="M183 261l-107 174h96l116 -174l-116 -174h-96zM363 261l-107 174h96l116 -174l-116 -174h-96z" />
    <glyph glyph-name="guilsinglleft" unicode="&#x2039;" horiz-adv-x="276" 
d="M128 260l107 -174h-96l-116 174l116 174h96z" />
    <glyph glyph-name="guilsinglright" unicode="&#x203a;" horiz-adv-x="288" 
d="M183 261l-107 174h96l116 -174l-116 -175h-96z" />
    <glyph glyph-name="quotedblbase" unicode="&#x201e;" horiz-adv-x="363" 
d="M109 121c32 0 61 -24 61 -64c0 -20 -7 -37 -18 -53l-57 -86h-59l38 87c-18 12 -27 31 -27 52c0 37 26 64 62 64zM258 121c32 0 61 -24 61 -64c0 -20 -7 -37 -18 -53l-57 -86h-59l38 87c-18 12 -27 31 -27 52c0 37 26 64 62 64z" />
    <glyph glyph-name="quotedblleft" unicode="&#x201c;" horiz-adv-x="296" 
d="M170 706l-38 -87c18 -12 27 -31 27 -52c0 -37 -26 -64 -62 -64c-32 0 -61 24 -61 64c0 20 7 37 18 53l57 86h59zM319 706l-38 -87c18 -12 27 -31 27 -52c0 -37 -26 -64 -62 -64c-32 0 -61 24 -61 64c0 20 7 37 18 53l57 86h59z" />
    <glyph glyph-name="quotedblright" unicode="&#x201d;" horiz-adv-x="333" 
d="M109 701c32 0 61 -24 61 -64c0 -20 -7 -37 -18 -53l-57 -86h-59l38 87c-18 12 -27 31 -27 52c0 37 26 64 62 64zM258 701c32 0 61 -24 61 -64c0 -20 -7 -37 -18 -53l-57 -86h-59l38 87c-18 12 -27 31 -27 52c0 37 26 64 62 64z" />
    <glyph glyph-name="quoteleft" unicode="&#x2018;" horiz-adv-x="214" 
d="M170 706l-38 -87c18 -12 27 -31 27 -52c0 -38 -26 -64 -62 -64c-32 0 -61 23 -61 64c0 20 7 36 18 52l57 87h59z" />
    <glyph glyph-name="quoteright" unicode="&#x2019;" horiz-adv-x="214" 
d="M109 700c32 0 61 -23 61 -64c0 -20 -7 -36 -18 -52l-57 -86h-59l38 86c-18 12 -27 31 -27 52c0 38 26 64 62 64z" />
    <glyph glyph-name="quotesinglbase" unicode="&#x201a;" horiz-adv-x="214" 
d="M109 121c32 0 61 -24 61 -64c0 -20 -7 -37 -18 -53l-57 -86h-59l38 87c-18 12 -27 31 -27 52c0 37 26 64 62 64z" />
    <glyph glyph-name="space" unicode=" " horiz-adv-x="258" 
 />
    <glyph glyph-name="nbspace" unicode="&#xa0;" horiz-adv-x="258" 
 />
    <glyph glyph-name="florin" unicode="&#x192;" horiz-adv-x="372" 
d="M334 655c-49 1 -86 -33 -93 -88l-13 -103h140l-9 -80h-140l-51 -414c-13 -104 -76 -170 -178 -169c-38 1 -82 16 -109 38l32 85c18 -16 44 -26 65 -27c47 -1 71 35 78 90l49 397h-69l9 80h69l15 119c13 104 87 170 189 169c46 -1 96 -16 128 -38l-41 -85
c-20 16 -48 26 -71 26z" />
    <glyph glyph-name="Euro" unicode="&#x20ac;" horiz-adv-x="790" 
d="M693 188l69 -78c-70 -70 -171 -115 -271 -115c-163 0 -297 98 -345 240h-109v64h94c-3 17 -4 34 -4 52s1 36 4 53h-94v64h110c49 139 184 235 349 235c99 0 198 -41 265 -108l-68 -86c-52 55 -124 89 -196 89c-96 0 -179 -52 -221 -130h251v-64h-275
c-3 -17 -5 -34 -5 -52s2 -36 6 -53h274v-64h-251c42 -78 125 -130 221 -130c70 0 142 32 196 83z" />
    <glyph glyph-name="cent" unicode="&#xa2;" horiz-adv-x="564" 
d="M465 159l64 -64c-41 -54 -103 -88 -183 -97v-140h-87v141c-134 18 -224 121 -224 266c0 146 90 249 224 268v151h87v-150c76 -8 136 -38 177 -85l-63 -74c-29 30 -68 51 -114 58v-335c50 6 90 27 119 61zM150 265c0 -82 43 -143 109 -163v326c-66 -20 -109 -81 -109 -163
z" />
    <glyph glyph-name="currency" unicode="&#xa4;" horiz-adv-x="711" 
d="M625 319c0 -57 -19 -109 -51 -152l102 -102l-65 -69l-106 105c-43 -28 -95 -44 -150 -44s-106 16 -149 44l-106 -105l-65 69l102 102c-31 43 -50 96 -50 152s18 108 48 151l-100 100l65 69l103 -103c44 30 96 47 152 47c57 0 109 -17 153 -46l103 102l65 -69l-100 -100
c31 -43 49 -95 49 -151zM355 155c99 0 179 74 179 164c0 92 -80 167 -179 167c-97 0 -176 -75 -176 -167c0 -90 79 -164 176 -164z" />
    <glyph glyph-name="dollar" unicode="$" horiz-adv-x="621" 
d="M363 589v-185c102 -31 214 -69 213 -206c0 -111 -86 -184 -213 -199v-141h-88v140c-96 8 -185 50 -249 109l51 102c60 -55 132 -89 198 -99v200c-100 30 -208 67 -208 200c0 107 82 178 208 192v132h88v-131c76 -7 149 -33 204 -70l-49 -104c-54 33 -109 52 -155 60z
M199 521c0 -44 31 -69 76 -87v157c-47 -8 -76 -32 -76 -70zM363 283v-172c52 11 82 39 82 81c0 47 -34 72 -82 91z" />
    <glyph glyph-name="sterling" unicode="&#xa3;" horiz-adv-x="547" 
d="M238 96h280v-96h-481v96h83v202h-83v84h83v101c0 142 77 222 213 222c76 0 147 -32 198 -90l-47 -92c-42 50 -90 76 -139 76c-69 0 -107 -40 -107 -119v-98h176v-84h-176v-202z" />
    <glyph glyph-name="yen" unicode="&#xa5;" horiz-adv-x="628" 
d="M428 322h147v-50h-174l-21 -38v-45h195v-50h-195v-139h-118v139h-187v50h187v40l-24 43h-163v50h136l-210 378h119l200 -341l196 341h120z" />
    <glyph glyph-name="approxequal" unicode="&#x2248;" 
d="M163 511c64 0 111 -57 152 -57c25 0 39 18 39 51h79c0 -93 -33 -140 -97 -140c-68 0 -110 57 -151 57c-26 0 -39 -18 -39 -51h-80c0 93 33 140 97 140zM163 291c64 0 111 -57 152 -57c25 0 39 17 39 50h79c0 -93 -33 -140 -97 -140c-68 0 -110 57 -151 57
c-26 0 -39 -17 -39 -50h-80c0 93 33 140 97 140z" />
    <glyph glyph-name="asciitilde" unicode="~" 
d="M163 395c64 0 111 -57 152 -57c25 0 39 17 39 50h79c0 -93 -33 -140 -97 -140c-68 0 -110 57 -151 57c-26 0 -39 -17 -39 -50h-80c0 93 33 140 97 140z" />
    <glyph glyph-name="bulletoperator" unicode="&#x2219;" horiz-adv-x="281" 
d="M140 366c55 0 95 -41 95 -98s-40 -100 -95 -100c-54 0 -94 43 -94 100s40 98 94 98z" />
    <glyph glyph-name="divide" unicode="&#xf7;" 
d="M243 572c35 0 61 -27 61 -63c0 -37 -26 -64 -61 -64s-60 27 -60 64c0 36 25 63 60 63zM463 285h-428v79h428v-79zM243 217c35 0 61 -27 61 -63c0 -37 -26 -64 -61 -64s-60 27 -60 64c0 36 25 63 60 63z" />
    <glyph glyph-name="divisionslash" unicode="&#x2215;" horiz-adv-x="331" 
d="M77 -117h-98l317 933h98z" />
    <glyph glyph-name="equal" unicode="=" 
d="M463 390h-428v79h428v-79zM463 180h-428v79h428v-79z" />
    <glyph glyph-name="greater" unicode="&#x3e;" 
d="M35 183l351 147l-351 148v89l428 -186v-101l-428 -186v89z" />
    <glyph glyph-name="greaterequal" unicode="&#x2265;" 
d="M35 252l351 145l-351 144v87l428 -182v-99l-428 -181v86zM463 20h-428v80h428v-80z" />
    <glyph glyph-name="infinity" unicode="&#x221e;" horiz-adv-x="875" 
d="M647 503c111 0 193 -86 193 -201c0 -116 -82 -202 -193 -202c-110 0 -164 64 -209 134c-44 -70 -98 -134 -210 -134c-111 0 -193 86 -193 201c0 116 82 202 193 202c110 0 164 -64 209 -134c44 70 98 134 210 134zM647 185c65 0 113 49 113 117s-48 117 -113 117
c-86 0 -130 -54 -169 -118c40 -63 84 -116 169 -116zM228 184c85 0 129 54 169 118c-40 63 -84 116 -169 116c-65 0 -113 -49 -113 -117s48 -117 113 -117z" />
    <glyph glyph-name="integral" unicode="&#x222b;" horiz-adv-x="342" 
d="M346 823l-14 -80c-18 8 -33 11 -50 11c-55 0 -76 -32 -76 -120c0 -118 22 -415 22 -544c0 -157 -42 -218 -151 -218c-35 0 -59 6 -85 21l15 80c22 -11 37 -16 57 -16c56 0 78 35 78 125c0 129 -23 422 -23 542c0 157 42 218 150 218c26 0 48 -6 77 -19z" />
    <glyph glyph-name="less" unicode="&#x3c;" 
d="M463 473l-351 -147l351 -148v-89l-428 186v101l428 186v-89z" />
    <glyph glyph-name="lessequal" unicode="&#x2264;" 
d="M463 536l-351 -144l351 -144v-87l-428 181v99l428 182v-87zM463 20h-428v80h428v-80z" />
    <glyph glyph-name="logicalnot" unicode="&#xac;" horiz-adv-x="562" 
d="M486 404v-259h-84v180h-367v79h451z" />
    <glyph glyph-name="minus" unicode="&#x2212;" 
d="M463 285h-428v79h428v-79z" />
    <glyph glyph-name="multiply" unicode="&#xd7;" 
d="M304 325l123 -124l-53 -56l-124 125l-125 -125l-53 56l123 124l-123 123l53 56l125 -125l124 125l53 -56z" />
    <glyph glyph-name="notequal" unicode="&#x2260;" 
d="M308 390l-41 -131h196v-79h-221l-47 -149h-88l47 149h-119v79h144l41 131h-185v79h210l46 144h88l-46 -144h130v-79h-155z" />
    <glyph glyph-name="partialdiff" unicode="&#x2202;" horiz-adv-x="615" 
d="M270 705c182 0 297 -144 297 -363s-107 -347 -285 -347c-148 0 -246 90 -246 234c0 136 88 224 226 224c98 0 165 -48 190 -121c12 173 -58 274 -190 274c-57 0 -114 -19 -160 -54l-46 90c60 38 142 63 214 63zM283 359c-85 0 -137 -47 -137 -128c0 -85 57 -134 142 -134
c101 0 145 69 145 129c0 74 -55 133 -150 133z" />
    <glyph glyph-name="percent" unicode="%" horiz-adv-x="973" 
d="M223 702c115 0 185 -78 185 -208c0 -131 -70 -210 -185 -210s-185 79 -185 210c0 130 70 208 185 208zM170 0l515 700h110l-514 -700h-111zM223 634c-69 0 -108 -51 -108 -140c0 -90 39 -142 108 -142s109 52 109 142c0 89 -40 140 -109 140zM750 415
c115 0 185 -78 185 -208c0 -131 -70 -209 -185 -209s-185 78 -185 209c0 130 70 208 185 208zM750 348c-69 0 -108 -52 -108 -141c0 -90 39 -141 108 -141s109 51 109 141c0 89 -40 141 -109 141z" />
    <glyph glyph-name="perthousand" unicode="&#x2030;" horiz-adv-x="1420" 
d="M223 702c115 0 185 -78 185 -208c0 -131 -70 -210 -185 -210s-185 79 -185 210c0 130 70 208 185 208zM170 0l515 700h110l-514 -700h-111zM223 634c-69 0 -108 -51 -108 -140c0 -90 39 -142 108 -142s109 52 109 142c0 89 -40 140 -109 140zM750 415
c115 0 185 -78 185 -208c0 -131 -70 -209 -185 -209s-185 78 -185 209c0 130 70 208 185 208zM1196 415c115 0 185 -78 185 -208c0 -131 -70 -209 -185 -209s-185 78 -185 209c0 130 70 208 185 208zM750 348c-69 0 -108 -52 -108 -141c0 -90 39 -141 108 -141
s109 51 109 141c0 89 -40 141 -109 141zM1196 348c-69 0 -108 -52 -108 -141c0 -90 39 -141 108 -141s109 51 109 141c0 89 -40 141 -109 141z" />
    <glyph glyph-name="plus" unicode="+" 
d="M463 285h-176v-175h-75v175h-177v79h177v175h75v-175h176v-79z" />
    <glyph glyph-name="plusminus" unicode="&#xb1;" 
d="M463 430v-78h-176v-171h-75v171h-177v78h177v171h75v-171h176zM35 100h428v-80h-428v80z" />
    <glyph glyph-name="product" unicode="&#x220f;" horiz-adv-x="750" 
d="M658 -194h-115v838h-336v-838h-115v936h566v-936z" />
    <glyph glyph-name="radical" unicode="&#x221a;" horiz-adv-x="689" 
d="M213 399l134 -428l229 779h110l-278 -904h-123l-151 456h-123v97h202z" />
    <glyph glyph-name="summation" unicode="&#x2211;" horiz-adv-x="611" 
d="M598 637h-422l277 -330l-279 -339h434v-106h-576v91l294 353l-286 345v92h558v-106z" />
    <glyph glyph-name="lozenge" unicode="&#x25ca;" horiz-adv-x="536" 
d="M501 330l-234 -348l-232 348l233 346zM141 330l126 -185l128 185l-127 185z" />
    <glyph glyph-name="ampersand" unicode="&#x26;" horiz-adv-x="663" 
d="M597 -19l-109 107c-62 -59 -134 -93 -211 -93c-125 0 -220 83 -220 196c0 99 72 152 151 194c-46 62 -67 112 -67 162c0 93 73 158 182 158c105 0 177 -61 177 -147c0 -96 -84 -146 -170 -191c38 -43 87 -93 147 -152c24 36 45 78 63 126l75 -56
c-21 -50 -45 -95 -73 -133l114 -111zM232 548c0 -37 17 -76 52 -124c68 35 125 71 125 133c0 46 -33 76 -85 76c-56 0 -92 -37 -92 -85zM281 82c51 0 100 25 144 68c-70 70 -126 127 -170 177c-58 -33 -103 -70 -103 -127c0 -70 57 -118 129 -118z" />
    <glyph glyph-name="asciicircum" unicode="^" horiz-adv-x="538" 
d="M416 132l-147 323l-148 -323h-89l186 394h101l186 -394h-89z" />
    <glyph glyph-name="at" unicode="@" horiz-adv-x="974" 
d="M493 702c257 0 447 -181 447 -430c0 -151 -79 -249 -191 -249c-61 0 -105 25 -116 81l-2 20c-41 -60 -103 -89 -172 -89c-122 0 -231 94 -231 234c0 132 87 239 220 239c88 0 148 -54 158 -75v65h108v-349c0 -38 19 -54 46 -54c49 0 94 71 94 174
c0 199 -139 352 -361 352c-208 0 -373 -156 -373 -354c0 -195 156 -337 360 -337c59 0 137 19 193 59l41 -73c-59 -42 -158 -69 -234 -69c-254 0 -446 179 -446 420c0 246 201 435 459 435zM469 408c-74 0 -124 -60 -124 -134c0 -77 50 -141 126 -141c79 0 128 62 128 140
c0 75 -51 135 -130 135z" />
    <glyph glyph-name="bar" unicode="|" horiz-adv-x="269" 
d="M178 -116h-87v926h87v-926z" />
    <glyph glyph-name="brokenbar" unicode="&#xa6;" horiz-adv-x="269" 
d="M178 464h-87v346h87v-346zM178 -116h-87v346h87v-346z" />
    <glyph glyph-name="copyright" unicode="&#xa9;" horiz-adv-x="745" 
d="M373 689c190 0 338 -153 338 -339c0 -185 -149 -341 -340 -341c-190 0 -337 154 -337 339s148 341 339 341zM373 629c-160 0 -282 -128 -282 -281s121 -279 280 -279c160 0 283 128 283 281s-122 279 -281 279zM378 520c48 0 97 -20 131 -53l-35 -42
c-26 26 -60 42 -95 42c-68 0 -121 -52 -121 -117c0 -66 53 -119 121 -119c33 0 69 15 95 40l35 -39c-35 -34 -84 -56 -133 -56c-100 0 -178 75 -178 173c0 97 79 171 180 171z" />
    <glyph glyph-name="dagger" unicode="&#x2020;" horiz-adv-x="536" 
d="M321 486h200v-106h-200v-570h-109v570h-197v106h197v213h109v-213z" />
    <glyph glyph-name="daggerdbl" unicode="&#x2021;" horiz-adv-x="536" 
d="M321 380v-231h200v-105h-200v-234h-109v234h-197v105h197v231h-197v106h197v213h109v-213h200v-106h-200z" />
    <glyph glyph-name="degree" unicode="&#xb0;" horiz-adv-x="346" 
d="M197 810c64 0 116 -52 116 -115s-52 -115 -116 -115c-63 0 -116 52 -116 115s52 115 116 115zM197 759c-37 0 -67 -30 -67 -64s30 -63 67 -63s67 29 67 63s-30 64 -67 64z" />
    <glyph glyph-name="estimated" unicode="&#x212e;" horiz-adv-x="809" 
d="M740 312h-543c-3 0 -5 -1 -5 -4v-164c0 -8 4 -14 8 -19c51 -55 125 -89 206 -89c86 0 164 39 215 99h49c-60 -70 -158 -117 -265 -117c-185 0 -335 135 -335 301c0 167 150 302 335 302s335 -135 335 -302v-7zM618 333v165c0 8 -4 15 -9 20c-52 52 -124 85 -203 85
c-81 0 -153 -34 -205 -88c-5 -5 -9 -12 -9 -20v-162c0 -3 2 -5 5 -5h416c3 0 5 2 5 5z" />
    <glyph glyph-name="literSign" unicode="&#x2113;" horiz-adv-x="467" 
d="M322 706c66 0 110 -44 110 -126c0 -136 -121 -263 -240 -361c-15 -91 2 -135 60 -135c54 0 96 39 134 85l40 -48c-58 -87 -126 -125 -200 -125c-95 0 -129 64 -129 164l-51 -35l-20 56l81 59l42 262c26 141 94 204 173 204zM320 636c-33 0 -64 -35 -80 -124l-33 -195
c88 77 154 179 154 261c0 38 -17 58 -41 58z" />
    <glyph glyph-name="paragraph" unicode="&#xb6;" horiz-adv-x="615" 
d="M523 -109h-88v779h-131v-779h-87v465h-31c-149 0 -187 115 -187 189c0 100 63 197 225 197h299v-851z" />
    <glyph glyph-name="registered" unicode="&#xae;" horiz-adv-x="745" 
d="M373 689c190 0 338 -153 338 -339c0 -185 -149 -341 -340 -341c-190 0 -337 154 -337 339s148 341 339 341zM371 69c160 0 283 128 283 281s-122 279 -281 279c-160 0 -282 -128 -282 -281s121 -279 280 -279zM517 412c0 -53 -25 -91 -71 -109l78 -113h-66l-63 102h-15
h-79v-102h-57v338h136c88 0 137 -42 137 -116zM301 340h79c52 0 83 26 83 71s-31 69 -83 69h-79v-140z" />
    <glyph glyph-name="section" unicode="&#xa7;" horiz-adv-x="499" 
d="M259 694c65 0 129 -17 189 -53l-36 -74c-54 31 -107 46 -152 46c-59 0 -97 -24 -97 -59c0 -113 305 -62 305 -248c0 -58 -48 -111 -108 -129c60 -26 87 -56 87 -114c0 -86 -82 -148 -205 -148c-81 0 -161 27 -221 76l35 74c57 -45 122 -68 183 -68c62 0 105 28 105 63
c0 112 -302 65 -302 247c0 63 47 109 122 127c-76 31 -101 63 -101 116c0 84 77 144 196 144zM242 376c-64 0 -100 -24 -100 -61c0 -47 56 -80 127 -80c64 0 97 27 97 64c0 46 -52 77 -124 77z" />
    <glyph glyph-name="trademark" unicode="&#x2122;" horiz-adv-x="886" 
d="M325 626h-123v-346h-85v346h-122v74h330v-74zM834 280h-77v297l-121 -254h-56l-120 254v-297h-78v420h98l128 -267l128 267h98v-420z" />
    <glyph glyph-name="acute" unicode="&#xb4;" horiz-adv-x="350" 
d="M286 706l-122 -98h-102l106 148z" />
    <glyph glyph-name="breve" unicode="&#x2d8;" horiz-adv-x="350" 
d="M238 749h78c-3 -85 -61 -142 -141 -142s-138 57 -141 142h78c2 -38 28 -65 63 -65s61 27 63 65z" />
    <glyph glyph-name="caron" unicode="&#x2c7;" horiz-adv-x="350" 
d="M10 755h102l63 -93l63 93h102l-108 -150h-114z" />
    <glyph glyph-name="cedilla" unicode="&#xb8;" horiz-adv-x="350" 
d="M231 11l-29 -61c42 -8 70 -35 70 -79c0 -58 -47 -95 -106 -95c-33 0 -65 11 -88 28l22 54c17 -13 38 -20 58 -20c29 0 46 21 46 41c0 19 -15 38 -48 38c-11 0 -24 -2 -35 -5l42 99h68z" />
    <glyph glyph-name="circumflex" unicode="&#x2c6;" horiz-adv-x="350" 
d="M331 614h-94l-62 88l-62 -88h-94l103 141h106z" />
    <glyph glyph-name="dieresis" unicode="&#xa8;" horiz-adv-x="388" 
d="M87 753c35 0 60 -27 60 -64c0 -36 -25 -63 -60 -63s-61 27 -61 63c0 37 26 64 61 64zM264 753c35 0 60 -27 60 -64c0 -36 -25 -63 -60 -63s-61 27 -61 63c0 37 26 64 61 64z" />
    <glyph glyph-name="dotaccent" unicode="&#x2d9;" horiz-adv-x="350" 
d="M175 754c38 0 67 -29 67 -70c0 -40 -29 -69 -67 -69s-67 29 -67 69c0 41 29 70 67 70z" />
    <glyph glyph-name="grave" unicode="`" horiz-adv-x="350" 
d="M280 609h-102l-122 98l118 50z" />
    <glyph glyph-name="hungarumlaut" unicode="&#x2dd;" horiz-adv-x="350" 
d="M183 719l-92 -110h-89l83 154zM348 719l-92 -110h-89l83 154z" />
    <glyph glyph-name="macron" unicode="&#xaf;" horiz-adv-x="350" 
d="M303 641h-255v83h255v-83z" />
    <glyph glyph-name="ogonek" unicode="&#x2db;" horiz-adv-x="350" 
d="M149 12h59c-40 -54 -58 -92 -58 -117c0 -20 13 -32 31 -32c17 0 34 13 49 32l33 -39c-23 -36 -58 -57 -95 -57c-39 0 -79 23 -79 78c0 40 22 84 60 135z" />
    <glyph glyph-name="ring" unicode="&#x2da;" horiz-adv-x="350" 
d="M175 801c65 0 118 -53 118 -116c0 -64 -53 -116 -118 -116s-118 52 -118 116c0 63 53 116 118 116zM175 749c-37 0 -68 -29 -68 -64s31 -64 68 -64s68 29 68 64s-31 64 -68 64z" />
    <glyph glyph-name="tilde" unicode="&#x2dc;" horiz-adv-x="350" 
d="M106 758c55 0 85 -55 119 -55c25 0 38 17 38 49h73c0 -87 -31 -131 -91 -131s-85 55 -120 55c-24 0 -37 -17 -37 -49h-74c0 87 32 131 92 131z" />
    <glyph glyph-name="commaaccent" unicode="&#x326;" horiz-adv-x="0" 
d="M109 -49c32 0 61 -24 61 -64c0 -19 -7 -36 -18 -52l-57 -86h-59l38 86c-18 12 -27 31 -27 52c0 37 26 64 62 64z" />
    <glyph glyph-name="firsttonechinese" unicode="&#x2c9;" horiz-adv-x="350" 
d="M303 641h-255v83h255v-83z" />
    </font>
</defs>
</svg>
